<svg width="17" height="12" viewBox="0 0 17 12" fill="none" xmlns="http://www.w3.org/2000/svg">
<path d="M8.33517 1.67683C5.88744 1.67683 3.44023 1.67735 0.992503 1.67526C0.850151 1.67526 0.702041 1.67212 0.565969 1.63653C0.178163 1.535 -0.0337952 1.18749 0.00440964 0.745257C0.0405211 0.331284 0.305339 0.0549522 0.710415 0.0130839C0.807236 0.00314013 0.905626 0 1.00349 0C5.90471 0 10.8065 0 15.7077 0.00104671C15.8505 0.00104671 15.9981 0.00209342 16.1352 0.0355881C16.5236 0.131362 16.7418 0.48044 16.7062 0.921104C16.6733 1.33769 16.4105 1.61874 16.0096 1.66165C15.8997 1.67369 15.7883 1.67578 15.6773 1.67578C13.2296 1.67631 10.7824 1.67631 8.33465 1.67631L8.33517 1.67683Z" fill="#FFA400"/>
<path d="M8.33466 6.68638C6.72272 6.68638 5.11079 6.68743 3.49886 6.68481C3.35651 6.68481 3.20892 6.68167 3.07233 6.64608C2.684 6.54403 2.47308 6.19652 2.51181 5.75428C2.54792 5.34083 2.81274 5.0645 3.21834 5.02316C3.31569 5.01322 3.41355 5.0106 3.51142 5.0106C6.74157 5.01007 9.97223 5.00955 13.2024 5.01164C13.3453 5.01164 13.4928 5.01269 13.63 5.04671C14.0183 5.14301 14.2355 5.49208 14.2004 5.93275C14.1669 6.34934 13.9047 6.62986 13.5033 6.67277C13.3997 6.68376 13.295 6.6869 13.1909 6.6869C11.5727 6.68795 9.95392 6.68743 8.3357 6.68743L8.33466 6.68638Z" fill="#FFA400"/>
<path d="M8.34564 11.6965C7.53025 11.6965 6.71434 11.7001 5.89896 11.6949C5.41799 11.6923 5.10451 11.4594 5.03071 11.0674C4.91714 10.465 5.2568 10.0327 5.86913 10.0228C6.52803 10.0123 7.18693 10.0201 7.84636 10.0196C8.83184 10.0196 9.81679 10.0175 10.8023 10.0207C11.2455 10.0222 11.525 10.1897 11.6423 10.5273C11.8139 11.0224 11.6192 11.6959 10.8321 11.6959C10.0036 11.6959 9.17463 11.6959 8.34616 11.6959L8.34564 11.6965Z" fill="#FFA400"/>
</svg>
