<svg width="18" height="14" viewBox="0 0 18 14" fill="none" xmlns="http://www.w3.org/2000/svg">
<path d="M-9.54157e-05 4.11398C0.0561883 3.88708 0.204614 3.72139 0.372103 3.5605C1.51049 2.46972 2.64433 1.37457 3.77999 0.281172C4.16717 -0.0917474 4.56796 -0.0939333 4.95196 0.275926C6.12756 1.4078 7.30271 2.54055 8.47832 3.67242C8.69846 3.88489 8.77698 4.13584 8.67395 4.42176C8.57636 4.69413 8.36529 4.84976 8.07026 4.88605C7.81517 4.91753 7.61 4.8161 7.43117 4.64297C6.71128 3.94523 5.98776 3.25141 5.26697 2.5541C5.22385 2.51213 5.19389 2.45792 5.15758 2.40896L5.09766 2.43562V2.61968C5.09766 6.13378 5.09766 9.64744 5.09585 13.1615C5.09585 13.2805 5.08813 13.4046 5.05227 13.517C4.94878 13.8427 4.61244 14.0315 4.25068 13.9834C3.93023 13.9406 3.66742 13.6647 3.64427 13.3447C3.63973 13.2796 3.642 13.2136 3.642 13.148C3.642 9.63957 3.642 6.13115 3.642 2.6223C3.642 2.55935 3.642 2.49639 3.642 2.40065C3.57074 2.46491 3.52581 2.50382 3.48359 2.54448C2.76098 3.23961 2.03973 3.93561 1.31667 4.63073C0.83599 5.09284 0.238202 4.95425 0.0216918 4.33257C0.0185145 4.32339 0.007167 4.31727 -0.000549316 4.3094C-0.000549316 4.24382 -0.000549316 4.17825 -0.000549316 4.11267L-9.54157e-05 4.11398Z" fill="#FFA400"/>
<path d="M17.4359 9.88494C17.3755 10.1223 17.2157 10.2933 17.041 10.4611C15.9149 11.5401 14.7933 12.6239 13.6699 13.7055C13.26 14.0998 12.8742 14.0981 12.4616 13.7011C11.2982 12.5806 10.1353 11.4597 8.97109 10.34C8.76229 10.1394 8.66743 9.9068 8.74641 9.62656C8.8912 9.11199 9.53029 8.93493 9.93926 9.29911C10.1599 9.49584 10.3668 9.70613 10.5793 9.91117C11.1525 10.4633 11.7249 11.0159 12.3381 11.607V11.381C12.3381 7.86733 12.3377 4.35366 12.3399 0.839566C12.3399 0.715842 12.3495 0.585561 12.3885 0.468832C12.4961 0.148375 12.8233 -0.0313085 13.181 0.0150332C13.5019 0.0561286 13.7652 0.329807 13.7902 0.651138C13.7951 0.716279 13.7929 0.782294 13.7929 0.847872C13.7929 4.35629 13.7929 7.86427 13.7929 11.3727V11.5961C13.861 11.5358 13.9059 11.4986 13.9477 11.4584C14.6498 10.7825 15.3765 10.128 16.0456 9.4224C16.5408 8.89996 17.2934 9.05472 17.4354 9.72187V9.88581L17.4359 9.88494Z" fill="#FFA400"/>
</svg>
