<svg width="500" height="500" viewBox="0 0 500 500" fill="none" xmlns="http://www.w3.org/2000/svg">
<path d="M250 477.93C380.113 477.93 485.59 417.032 485.59 341.91C485.59 266.788 380.113 205.89 250 205.89C119.887 205.89 14.4102 266.788 14.4102 341.91C14.4102 417.032 119.887 477.93 250 477.93Z" fill="white"/>
<path d="M201.25 444.98C246.117 444.98 282.49 423.982 282.49 398.08C282.49 372.178 246.117 351.18 201.25 351.18C156.382 351.18 120.01 372.178 120.01 398.08C120.01 423.982 156.382 444.98 201.25 444.98Z" fill="#EDF6FF"/>
<path d="M278.72 211C277.36 210.19 271.05 206.6 270.72 206.41C270.463 206.257 270.244 206.047 270.078 205.798C269.913 205.548 269.805 205.265 269.764 204.968C269.723 204.672 269.749 204.37 269.84 204.084C269.931 203.799 270.085 203.538 270.29 203.32L295.2 176.6L303.32 181.26L278.42 208C278.225 208.208 278.076 208.456 277.984 208.727C277.892 208.997 277.86 209.284 277.888 209.568C277.917 209.853 278.006 210.127 278.149 210.374C278.293 210.621 278.487 210.835 278.72 211Z" fill="#0069A4"/>
<path d="M303.32 181.29L278.42 208C278.144 208.295 277.963 208.667 277.903 209.067C277.842 209.467 277.904 209.876 278.08 210.24C278.257 210.604 278.54 210.906 278.891 211.106C279.243 211.306 279.647 211.395 280.05 211.36L303.32 209.44V181.29Z" fill="#0082CA"/>
<path d="M301.16 309.74L297.37 307.55C296.739 307.14 296.213 306.587 295.836 305.935C295.459 305.283 295.241 304.552 295.2 303.8V146.28C295.241 145.53 295.458 144.799 295.834 144.148C296.209 143.496 296.732 142.942 297.36 142.53L402.71 81.7101C403.381 81.37 404.123 81.1929 404.875 81.1929C405.627 81.1929 406.369 81.37 407.04 81.7101L410.83 83.9001C411.462 84.3101 411.987 84.8634 412.364 85.5151C412.742 86.1667 412.959 86.8983 413 87.6501V245.17C412.959 245.921 412.742 246.651 412.367 247.302C411.992 247.954 411.469 248.508 410.84 248.92L305.49 309.75C304.819 310.091 304.077 310.268 303.324 310.266C302.571 310.264 301.83 310.084 301.16 309.74Z" fill="#311C64"/>
<path d="M413 87.3001C412.85 86.1801 411.94 85.7701 410.85 86.4001L305.49 147.23C304.853 147.63 304.327 148.183 303.96 148.84L295.83 144.15C296.194 143.489 296.72 142.931 297.36 142.53L402.71 81.7101C403.381 81.37 404.123 81.1929 404.875 81.1929C405.627 81.1929 406.369 81.37 407.04 81.7101L410.83 83.9001C411.415 84.2769 411.912 84.7759 412.287 85.3627C412.662 85.9495 412.905 86.6104 413 87.3001Z" fill="#FF7600"/>
<path d="M305.12 309.92C304.48 310.179 303.792 310.298 303.102 310.269C302.412 310.24 301.736 310.063 301.12 309.75L297.32 307.55C296.692 307.138 296.169 306.584 295.794 305.932C295.418 305.281 295.201 304.55 295.16 303.8V146.28C295.186 145.528 295.403 144.795 295.79 144.15L303.92 148.84C303.525 149.486 303.305 150.223 303.28 150.98V308.5C303.32 309.74 304.1 310.31 305.12 309.92Z" fill="#FFA400"/>
<path d="M303.32 151V308.5C303.32 309.88 304.32 310.44 305.49 309.75L410.84 248.92C411.469 248.508 411.992 247.953 412.367 247.302C412.742 246.651 412.959 245.92 413 245.17V87.6499C413 86.2699 412 85.7099 410.84 86.3999L305.49 147.23C304.856 147.642 304.329 148.198 303.952 148.854C303.574 149.509 303.358 150.245 303.32 151Z" fill="#EEEEFF"/>
<path d="M358.161 133.2C370.441 126.11 380.391 131.86 380.391 146.04C380.391 160.22 370.441 177.45 358.161 184.54C345.881 191.63 335.931 185.88 335.931 171.71C335.931 157.54 345.881 140.29 358.161 133.2Z" fill="#0082CA"/>
<path d="M358 144.36C362 142.06 365.21 143.92 365.21 148.52C365.074 151.021 364.35 153.454 363.097 155.622C361.845 157.791 360.098 159.633 358 161C354 163.3 350.78 161.44 350.78 156.84C350.918 154.339 351.643 151.905 352.898 149.737C354.152 147.568 355.9 145.726 358 144.36Z" fill="white"/>
<path d="M372.221 168.88C372.221 161.33 366.911 158.26 360.371 162.04L356.281 164.4C349.741 168.18 344.431 177.4 344.431 184.93V187C345.665 187.395 346.954 187.594 348.251 187.59C351.759 187.471 355.175 186.437 358.161 184.59C363.845 181.089 368.654 176.334 372.221 170.69V168.88Z" fill="white"/>
<path d="M344.08 254.73L372.24 238.47C373.44 237.78 374.41 238.34 374.41 239.72V248.79C374.369 249.542 374.152 250.274 373.774 250.925C373.397 251.577 372.872 252.13 372.24 252.54L344.08 268.8C342.88 269.49 341.91 268.93 341.91 267.55V258.48C341.951 257.728 342.169 256.997 342.546 256.345C342.923 255.694 343.449 255.14 344.08 254.73Z" fill="#FF7600"/>
<path d="M330.29 234.47L386 202.29C387.43 201.46 388.6 202.13 388.6 203.79V207.16C388.551 208.062 388.29 208.939 387.838 209.721C387.387 210.503 386.757 211.168 386 211.66L330.26 243.84C328.83 244.67 327.67 244 327.67 242.34V239C327.716 238.091 327.977 237.206 328.433 236.419C328.888 235.631 329.525 234.963 330.29 234.47Z" fill="#C9C8D3" fill-opacity="0.6"/>
<path d="M336.811 211.18C337.571 210.74 338.161 210.67 338.581 210.98C339.001 211.29 339.211 211.98 339.211 213.04C339.232 214.007 339.016 214.965 338.581 215.83C338.188 216.611 337.572 217.259 336.811 217.69L335.311 218.56V221.79C335.308 221.901 335.281 222.01 335.231 222.11C335.196 222.2 335.133 222.277 335.051 222.33L334.291 222.77C334.265 222.789 334.233 222.8 334.201 222.8C334.168 222.8 334.137 222.789 334.111 222.77C334.057 222.702 334.032 222.616 334.041 222.53V213.18C334.04 213.069 334.064 212.96 334.111 212.86C334.149 212.771 334.211 212.695 334.291 212.64L336.811 211.18ZM335.311 216.75L336.761 215.91C337.111 215.712 337.407 215.43 337.621 215.09C337.848 214.688 337.959 214.231 337.941 213.77C337.941 213.23 337.831 212.92 337.621 212.83C337.473 212.794 337.318 212.792 337.169 212.825C337.02 212.858 336.88 212.925 336.761 213.02L335.311 213.86V216.75Z" fill="#9AA0A9"/>
<path d="M343.4 207.37C343.5 207.31 343.58 207.31 343.63 207.37C343.694 207.46 343.739 207.562 343.76 207.67L346.07 215.49C346.07 215.49 346.07 215.55 346.07 215.58C346.069 215.692 346.041 215.801 345.99 215.9C345.955 215.991 345.892 216.068 345.81 216.12L345.13 216.51C345.01 216.58 344.92 216.59 344.87 216.51C344.822 216.46 344.787 216.398 344.77 216.33L344.36 214.96L341.36 216.68L340.96 218.52C340.932 218.62 340.895 218.717 340.85 218.81C340.801 218.932 340.708 219.032 340.59 219.09L339.91 219.48C339.885 219.501 339.853 219.513 339.82 219.513C339.787 219.513 339.756 219.501 339.73 219.48C339.678 219.416 339.653 219.333 339.66 219.25C339.655 219.214 339.655 219.177 339.66 219.14L341.96 208.66C341.988 208.506 342.032 208.355 342.09 208.21C342.139 208.105 342.22 208.018 342.32 207.96L343.4 207.37ZM343.92 213.43L342.92 209.9L341.92 214.62L343.92 213.43Z" fill="#9AA0A9"/>
<path d="M349.57 203.66C349.905 203.449 350.286 203.322 350.68 203.29C350.959 203.265 351.239 203.328 351.48 203.47C351.7 203.612 351.871 203.818 351.97 204.06C352.08 204.306 352.141 204.571 352.15 204.84C352.157 204.951 352.133 205.062 352.08 205.16C352.045 205.251 351.982 205.328 351.9 205.38L351.24 205.76C351.13 205.82 351.05 205.83 351 205.76C350.939 205.719 350.887 205.664 350.85 205.6C350.81 205.51 350.753 205.429 350.68 205.362C350.608 205.295 350.523 205.243 350.43 205.21C350.126 205.166 349.817 205.246 349.57 205.43C349.408 205.535 349.254 205.652 349.11 205.78C348.962 205.917 348.831 206.071 348.72 206.24C348.614 206.403 348.527 206.577 348.46 206.76C348.401 206.934 348.371 207.116 348.37 207.3C348.359 207.468 348.39 207.637 348.46 207.79C348.491 207.844 348.535 207.889 348.587 207.922C348.639 207.955 348.699 207.975 348.76 207.98C348.946 208.012 349.135 208.012 349.32 207.98L350.19 207.79C350.515 207.694 350.853 207.653 351.19 207.67C351.432 207.669 351.667 207.746 351.86 207.89C352.044 208.044 352.176 208.25 352.24 208.48C352.338 208.804 352.382 209.142 352.37 209.48C352.37 209.927 352.306 210.371 352.18 210.8C352.058 211.241 351.88 211.664 351.65 212.06C351.408 212.466 351.12 212.841 350.79 213.18C350.454 213.529 350.07 213.828 349.65 214.07C349.343 214.258 349.004 214.39 348.65 214.46C348.363 214.515 348.065 214.491 347.79 214.39C347.54 214.274 347.334 214.081 347.2 213.84C347.037 213.532 346.948 213.189 346.94 212.84C346.939 212.726 346.963 212.614 347.01 212.51C347.055 212.425 347.12 212.353 347.2 212.3L347.86 211.92C347.96 211.86 348.04 211.84 348.1 211.87C348.16 211.9 348.2 211.95 348.24 212.04C348.282 212.143 348.335 212.24 348.4 212.33C348.463 212.417 348.55 212.483 348.65 212.52C348.782 212.55 348.919 212.55 349.05 212.52C349.263 212.47 349.465 212.386 349.65 212.27C349.844 212.159 350.028 212.032 350.2 211.89C350.537 211.624 350.804 211.281 350.98 210.89C351.061 210.69 351.101 210.476 351.1 210.26C351.11 210.182 351.103 210.102 351.081 210.027C351.058 209.951 351.021 209.881 350.97 209.82C350.916 209.772 350.853 209.737 350.784 209.716C350.715 209.696 350.642 209.69 350.57 209.7C350.343 209.709 350.118 209.746 349.9 209.81C349.64 209.87 349.34 209.94 348.99 210C348.723 210.067 348.445 210.087 348.17 210.06C347.954 210.046 347.749 209.958 347.59 209.81C347.418 209.641 347.296 209.426 347.24 209.19C347.16 208.843 347.123 208.487 347.13 208.13C347.13 207.69 347.194 207.252 347.32 206.83C347.44 206.396 347.615 205.979 347.84 205.59C348.057 205.203 348.319 204.844 348.62 204.52C348.895 204.19 349.215 203.9 349.57 203.66Z" fill="#9AA0A9"/>
<path d="M356.14 199.88C356.473 199.662 356.854 199.532 357.25 199.5C357.529 199.476 357.809 199.539 358.05 199.68C358.264 199.826 358.431 200.031 358.53 200.27C358.64 200.516 358.701 200.781 358.71 201.05C358.722 201.161 358.698 201.274 358.64 201.37C358.605 201.461 358.542 201.538 358.46 201.59L357.8 201.97C357.7 202.03 357.62 202.05 357.56 201.97C357.497 201.93 357.448 201.87 357.42 201.8C357.329 201.625 357.176 201.489 356.99 201.42C356.841 201.398 356.689 201.406 356.543 201.444C356.397 201.482 356.26 201.548 356.14 201.64C355.973 201.742 355.816 201.859 355.67 201.99C355.525 202.127 355.397 202.281 355.29 202.45C355.18 202.611 355.093 202.786 355.03 202.97C354.968 203.143 354.934 203.326 354.93 203.51C354.919 203.678 354.95 203.847 355.02 204C355.051 204.054 355.095 204.099 355.147 204.132C355.199 204.165 355.259 204.185 355.32 204.19C355.506 204.222 355.695 204.222 355.88 204.19L356.75 204C357.076 203.909 357.413 203.869 357.75 203.88C357.992 203.878 358.227 203.955 358.42 204.1C358.603 204.256 358.738 204.461 358.81 204.69C358.899 205.016 358.939 205.353 358.93 205.69C358.93 206.137 358.866 206.581 358.74 207.01C358.618 207.451 358.44 207.874 358.21 208.27C357.97 208.679 357.681 209.059 357.35 209.4C357.013 209.74 356.633 210.036 356.22 210.28C355.912 210.467 355.574 210.599 355.22 210.67C354.936 210.725 354.642 210.7 354.37 210.6C354.116 210.487 353.905 210.294 353.77 210.05C353.606 209.742 353.52 209.399 353.52 209.05C353.509 208.939 353.533 208.826 353.59 208.73C353.626 208.64 353.689 208.563 353.77 208.51L354.43 208.13C354.53 208.07 354.62 208.05 354.67 208.08C354.705 208.096 354.736 208.119 354.76 208.149C354.784 208.178 354.802 208.213 354.81 208.25C354.856 208.351 354.909 208.448 354.97 208.54C355.036 208.628 355.127 208.694 355.23 208.73C355.362 208.76 355.499 208.76 355.63 208.73C355.843 208.68 356.045 208.596 356.23 208.48C356.42 208.367 356.6 208.24 356.77 208.1C356.946 207.963 357.101 207.801 357.23 207.62C357.36 207.447 357.467 207.259 357.55 207.06C357.631 206.86 357.671 206.646 357.67 206.43C357.68 206.352 357.673 206.272 357.651 206.197C357.628 206.121 357.591 206.051 357.54 205.99C357.486 205.942 357.423 205.907 357.354 205.886C357.285 205.866 357.212 205.86 357.14 205.87C356.917 205.884 356.696 205.921 356.48 205.98C356.22 206.04 355.91 206.11 355.57 206.17C355.299 206.237 355.019 206.257 354.74 206.23C354.523 206.219 354.318 206.13 354.16 205.98C353.991 205.81 353.873 205.595 353.82 205.36C353.732 205.017 353.691 204.664 353.7 204.31C353.704 203.867 353.768 203.426 353.89 203C354.014 202.568 354.189 202.151 354.41 201.76C354.627 201.371 354.892 201.011 355.2 200.69C355.47 200.373 355.787 200.099 356.14 199.88Z" fill="#9AA0A9"/>
<path d="M363.43 201.13L362.62 205.92C362.596 206.064 362.556 206.205 362.5 206.34C362.461 206.448 362.387 206.539 362.29 206.6L361.53 207.04C361.43 207.1 361.36 207.1 361.31 207.04C361.243 206.958 361.204 206.856 361.2 206.75L360 198.3C360 198.3 360 198.22 360 198.19C360.003 198.079 360.03 197.969 360.08 197.87C360.118 197.781 360.18 197.705 360.26 197.65L360.95 197.25C361.008 197.227 361.072 197.227 361.13 197.25C361.19 197.25 361.23 197.33 361.25 197.49L362.04 203.18L362.73 198.91C362.748 198.803 362.778 198.699 362.82 198.6C362.86 198.473 362.945 198.366 363.06 198.3L363.83 197.85C363.94 197.79 364.02 197.8 364.07 197.85C364.113 197.914 364.144 197.985 364.16 198.06L364.86 201.53L365.65 194.93C365.659 194.8 365.697 194.674 365.76 194.56C365.807 194.485 365.868 194.421 365.94 194.37L366.63 193.97C366.656 193.95 366.688 193.94 366.72 193.94C366.752 193.94 366.784 193.95 366.81 193.97C366.838 194.003 366.86 194.041 366.874 194.082C366.888 194.123 366.893 194.167 366.89 194.21C366.894 194.25 366.894 194.29 366.89 194.33L365.69 204.16C365.67 204.304 365.633 204.445 365.58 204.58C365.534 204.687 365.458 204.777 365.36 204.84L364.59 205.28C364.5 205.33 364.43 205.33 364.38 205.28C364.329 205.188 364.289 205.091 364.26 204.99L363.43 201.13Z" fill="#9AA0A9"/>
<path d="M368.11 196.89C368.132 196.336 368.199 195.784 368.31 195.24C368.424 194.709 368.599 194.192 368.83 193.7C369.05 193.222 369.333 192.775 369.67 192.37C370.012 191.969 370.421 191.63 370.88 191.37C371.232 191.131 371.645 190.996 372.07 190.98C372.388 190.983 372.692 191.109 372.92 191.33C373.162 191.602 373.337 191.928 373.43 192.28C373.559 192.739 373.63 193.213 373.64 193.69C373.64 193.87 373.64 194.07 373.64 194.29C373.64 194.51 373.64 194.74 373.64 194.98C373.64 195.22 373.64 195.45 373.64 195.67C373.64 195.89 373.64 196.1 373.64 196.29C373.618 196.841 373.551 197.39 373.44 197.93C373.324 198.46 373.153 198.976 372.93 199.47C372.703 199.947 372.417 200.393 372.08 200.8C371.738 201.198 371.333 201.535 370.88 201.8C370.519 202.037 370.101 202.172 369.67 202.19C369.514 202.193 369.359 202.165 369.215 202.106C369.071 202.048 368.94 201.961 368.83 201.85C368.569 201.57 368.389 201.224 368.31 200.85C368.191 200.389 368.124 199.916 368.11 199.44C368.11 199.26 368.11 199.06 368.11 198.84C368.11 198.62 368.11 198.39 368.11 198.15C368.11 197.91 368.11 197.69 368.11 197.46C368.11 197.23 368.1 197.07 368.11 196.89ZM372.37 194.5C372.392 194.255 372.365 194.009 372.289 193.775C372.213 193.541 372.091 193.325 371.93 193.14C371.67 192.91 371.31 192.92 370.88 193.14C370.413 193.414 370.043 193.827 369.82 194.32C369.536 194.903 369.386 195.542 369.38 196.19C369.38 196.56 369.38 196.97 369.38 197.42C369.38 197.87 369.38 198.27 369.38 198.63C369.358 198.875 369.385 199.121 369.461 199.355C369.536 199.589 369.659 199.805 369.82 199.99C370.08 200.21 370.44 200.19 370.88 199.94C371.339 199.664 371.705 199.256 371.93 198.77C372.214 198.191 372.364 197.555 372.37 196.91C372.37 196.53 372.37 196.12 372.37 195.67C372.37 195.22 372.38 194.86 372.37 194.5Z" fill="#9AA0A9"/>
<path d="M378 187.38C378.79 186.93 379.38 186.86 379.79 187.19C380.033 187.458 380.213 187.776 380.319 188.122C380.424 188.467 380.452 188.832 380.4 189.19C380.408 189.869 380.303 190.545 380.09 191.19C379.887 191.791 379.571 192.347 379.16 192.83L380.46 195.66C380.464 195.707 380.464 195.753 380.46 195.8C380.46 195.89 380.44 195.979 380.4 196.06C380.372 196.133 380.323 196.195 380.26 196.24L379.46 196.7C379.33 196.77 379.24 196.78 379.18 196.7C379.127 196.648 379.083 196.587 379.05 196.52L377.82 193.85L376.57 194.57V197.95C376.571 198.061 376.547 198.17 376.5 198.27C376.459 198.357 376.397 198.432 376.32 198.49L375.56 198.93C375.535 198.951 375.503 198.963 375.47 198.963C375.437 198.963 375.405 198.951 375.38 198.93C375.351 198.899 375.329 198.863 375.315 198.823C375.302 198.784 375.296 198.742 375.3 198.7V189.35C375.303 189.239 375.33 189.13 375.38 189.03C375.415 188.939 375.478 188.862 375.56 188.81L378 187.38ZM376.59 192.76L378 192C378.344 191.808 378.639 191.537 378.86 191.21C379.091 190.825 379.203 190.379 379.18 189.93C379.18 189.39 379.07 189.09 378.86 189.03C378.555 188.989 378.247 189.068 378 189.25L376.64 190.03L376.59 192.76Z" fill="#9AA0A9"/>
<path d="M384.701 183.53C385.063 183.293 385.479 183.149 385.911 183.11C386.223 183.099 386.529 183.21 386.761 183.42C387.025 183.699 387.209 184.045 387.291 184.42C387.425 184.916 387.499 185.426 387.511 185.94C387.511 186.64 387.511 187.36 387.511 188.09C387.49 188.686 387.416 189.278 387.291 189.86C387.176 190.401 387.002 190.928 386.771 191.43C386.547 191.892 386.265 192.322 385.931 192.71C385.596 193.108 385.198 193.446 384.751 193.71L382.381 195C382.355 195.021 382.323 195.033 382.291 195.033C382.258 195.033 382.226 195.021 382.201 195C382.171 194.97 382.149 194.934 382.135 194.894C382.121 194.854 382.116 194.812 382.121 194.77V185.42C382.123 185.309 382.151 185.2 382.201 185.1C382.236 185.01 382.299 184.933 382.381 184.88L384.701 183.53ZM386.241 186.64C386.236 186.369 386.196 186.1 386.121 185.84C386.074 185.643 385.974 185.463 385.831 185.32C385.768 185.257 385.693 185.208 385.61 185.175C385.528 185.143 385.439 185.127 385.351 185.13C385.1 185.147 384.859 185.23 384.651 185.37L383.391 186.09V192.61L384.701 191.86C384.954 191.713 385.18 191.523 385.371 191.3C385.557 191.081 385.715 190.839 385.841 190.58C385.965 190.305 386.059 190.016 386.121 189.72C386.19 189.411 386.23 189.097 386.241 188.78C386.271 188.05 386.271 187.34 386.241 186.64Z" fill="#9AA0A9"/>
<path d="M247.38 38.3901C249.106 38.7742 250.769 39.4004 252.32 40.2501C253.805 41.0484 255.136 42.1049 256.25 43.3701C257.316 44.5872 258.107 46.0197 258.57 47.5701C259.042 49.2297 259.076 50.9832 258.67 52.6601C258.402 53.9896 257.875 55.2535 257.12 56.3801C256.43 57.3435 255.609 58.2052 254.68 58.9401C253.767 59.6486 252.794 60.2745 251.77 60.8101L248.89 62.3401C248.022 62.7926 247.199 63.3249 246.43 63.9301C245.734 64.4637 245.201 65.1805 244.89 66.0001C244.738 66.3746 244.485 66.6998 244.16 66.9401C244.006 67.0596 243.827 67.1424 243.637 67.1823C243.446 67.2222 243.249 67.218 243.06 67.1701L238.82 66.2301C238.616 66.1873 238.422 66.1042 238.25 65.9858C238.079 65.8673 237.932 65.7158 237.82 65.5401C237.7 65.3768 237.621 65.1876 237.588 64.9878C237.555 64.788 237.569 64.5833 237.63 64.3901C237.971 63.077 238.573 61.8459 239.4 60.7701C240.154 59.8185 241.028 58.9681 242 58.2401C242.947 57.547 243.95 56.9349 245 56.4101C246 55.9001 247 55.4101 247.87 54.9201C248.679 54.4851 249.44 53.9656 250.14 53.3701C250.754 52.8561 251.18 52.1525 251.35 51.3701C251.509 50.6907 251.501 49.9829 251.327 49.3072C251.153 48.6315 250.818 48.008 250.35 47.4901C249.181 46.2134 247.618 45.365 245.91 45.0801C242.75 44.3801 240.083 45.4435 237.91 48.2701C237.7 48.5787 237.436 48.8464 237.13 49.0601C236.785 49.2312 236.386 49.26 236.02 49.1401L231.51 48.1401C231.188 48.078 230.904 47.891 230.72 47.6201C230.621 47.4754 230.555 47.3112 230.526 47.1386C230.497 46.9661 230.505 46.7892 230.55 46.6201C230.933 45.2306 231.647 43.9543 232.63 42.9001C233.739 41.6776 235.056 40.6618 236.52 39.9001C238.121 39.0625 239.846 38.4885 241.63 38.2001C243.541 37.8893 245.494 37.9538 247.38 38.3901ZM242.59 70.5701C242.987 70.6633 243.331 70.9079 243.55 71.2518C243.768 71.5956 243.844 72.0114 243.76 72.4101L242.68 77.3101C242.643 77.5153 242.564 77.7104 242.447 77.8827C242.33 78.0551 242.177 78.2007 242 78.3101C241.833 78.4255 241.643 78.5047 241.443 78.5426C241.243 78.5805 241.038 78.5762 240.84 78.5301L236 77.4201C235.794 77.3854 235.598 77.3067 235.426 77.1893C235.253 77.072 235.108 76.9188 235 76.7401C234.888 76.5712 234.811 76.3812 234.775 76.1818C234.739 75.9823 234.744 75.7776 234.79 75.5801L235.88 70.6801C235.973 70.2829 236.217 69.9376 236.561 69.7173C236.904 69.4971 237.32 69.4192 237.72 69.5001L242.59 70.5701Z" fill="#EDF6FF"/>
<path d="M252.72 85.3001C253.924 85.107 255.149 85.0834 256.36 85.2301C257.516 85.3676 258.64 85.706 259.68 86.2301C260.67 86.7439 261.542 87.4593 262.24 88.3301C262.867 89.1824 263.308 90.1567 263.536 91.1902C263.763 92.2237 263.771 93.2933 263.56 94.3301C263.369 95.1273 263.062 95.8921 262.65 96.6001C262.252 97.2888 261.79 97.9384 261.27 98.5401C260.76 99.1401 260.27 99.7101 259.82 100.26C259.379 100.773 258.987 101.325 258.65 101.91C258.333 102.423 258.173 103.017 258.19 103.62C258.181 103.902 258.102 104.177 257.96 104.42C257.887 104.532 257.792 104.628 257.68 104.7C257.568 104.773 257.442 104.82 257.31 104.84L254.31 105.32C254.169 105.346 254.026 105.343 253.886 105.312C253.747 105.281 253.616 105.223 253.5 105.14C253.381 105.066 253.283 104.965 253.211 104.845C253.14 104.725 253.098 104.589 253.09 104.45C252.964 103.52 253.032 102.573 253.29 101.67C253.525 100.871 253.861 100.105 254.29 99.3901C254.71 98.7045 255.192 98.0585 255.73 97.4601C256.26 96.8601 256.73 96.3001 257.19 95.7601C257.6 95.2779 257.956 94.7513 258.25 94.1901C258.51 93.7071 258.605 93.1521 258.52 92.6101C258.444 92.1331 258.255 91.6812 257.968 91.293C257.681 90.9047 257.304 90.5916 256.87 90.3801C255.795 89.8608 254.578 89.7131 253.41 89.9601C252.352 90.1148 251.368 90.5928 250.593 91.3286C249.818 92.0644 249.289 93.022 249.08 94.0701C249.021 94.3222 248.92 94.5624 248.78 94.7801C248.601 94.9699 248.359 95.0874 248.1 95.1101L244.94 95.6201C244.717 95.6626 244.488 95.6159 244.3 95.4901C244.203 95.424 244.122 95.338 244.062 95.238C244.002 95.1379 243.963 95.0262 243.95 94.9101C243.856 93.9178 244.01 92.9177 244.4 92.0001C244.795 90.9324 245.377 89.9436 246.12 89.0801C246.933 88.1346 247.892 87.3245 248.96 86.6801C250.112 85.9813 251.389 85.5127 252.72 85.3001ZM257.88 107.15C258.017 107.128 258.158 107.134 258.294 107.166C258.429 107.199 258.557 107.258 258.67 107.34C258.787 107.418 258.888 107.519 258.963 107.638C259.039 107.757 259.089 107.891 259.11 108.03L259.67 111.46C259.713 111.738 259.645 112.022 259.48 112.251C259.315 112.479 259.067 112.633 258.79 112.68L255.44 113.23C255.162 113.273 254.878 113.205 254.65 113.04C254.534 112.962 254.435 112.86 254.361 112.741C254.287 112.622 254.239 112.489 254.22 112.35L253.66 108.92C253.634 108.782 253.638 108.641 253.671 108.505C253.703 108.369 253.764 108.241 253.85 108.13C253.928 108.014 254.03 107.916 254.149 107.842C254.268 107.768 254.401 107.719 254.54 107.7L257.88 107.15Z" fill="#EDF6FF"/>
<path d="M281 90.6903C281.136 90.7851 281.252 90.9067 281.339 91.0477C281.427 91.1887 281.485 91.3461 281.51 91.5103C281.542 91.673 281.539 91.8405 281.503 92.0023C281.467 92.1641 281.398 92.3167 281.3 92.4503L278.92 95.8003C278.825 95.9367 278.703 96.0522 278.562 96.1399C278.421 96.2276 278.264 96.2856 278.1 96.3103C277.937 96.3422 277.77 96.3399 277.608 96.3038C277.446 96.2676 277.293 96.1984 277.16 96.1003L273.88 93.7703C273.743 93.6768 273.628 93.5554 273.542 93.414C273.456 93.2726 273.4 93.1146 273.38 92.9503C273.348 92.7876 273.35 92.6201 273.386 92.4583C273.422 92.2966 273.492 92.144 273.59 92.0103L276 88.6603C276.195 88.3888 276.489 88.205 276.818 88.1489C277.148 88.0927 277.486 88.1687 277.76 88.3603L281 90.6903ZM294.84 68.0003C296.036 68.8385 297.101 69.8495 298 71.0003C298.877 72.0708 299.554 73.2902 300 74.6003C300.415 75.8558 300.555 77.186 300.41 78.5003C300.24 79.902 299.71 81.2355 298.87 82.3703C298.246 83.2879 297.443 84.0702 296.51 84.6703C295.688 85.1853 294.795 85.5762 293.86 85.8303C292.948 86.0686 292.018 86.2291 291.08 86.3103L288.42 86.5503C287.622 86.6141 286.832 86.7513 286.06 86.9603C285.347 87.1221 284.695 87.4827 284.18 88.0003C283.947 88.2369 283.652 88.4032 283.33 88.4803C283.176 88.5244 283.014 88.531 282.858 88.4997C282.701 88.4684 282.554 88.4 282.43 88.3003L279.53 86.2403C279.253 86.0424 279.063 85.745 279 85.4103C278.962 85.2482 278.964 85.0794 279.004 84.9179C279.044 84.7563 279.121 84.6064 279.23 84.4803C279.907 83.6013 280.754 82.8668 281.72 82.3203C282.589 81.8454 283.517 81.4858 284.48 81.2503C285.409 81.0249 286.356 80.8811 287.31 80.8203C288.25 80.7603 289.13 80.6903 289.95 80.6103C290.7 80.5441 291.441 80.3965 292.16 80.1703C292.788 79.961 293.33 79.5497 293.7 79.0003C294.034 78.5365 294.251 77.9988 294.333 77.4329C294.415 76.8671 294.359 76.2899 294.17 75.7503C293.697 74.4175 292.792 73.2808 291.6 72.5203C289.44 70.9803 287.083 70.9303 284.53 72.3703C284.273 72.5339 283.988 72.6491 283.69 72.7103C283.534 72.7212 283.378 72.7011 283.231 72.6513C283.083 72.6016 282.947 72.523 282.83 72.4203L279.75 70.2303C279.638 70.1563 279.543 70.0606 279.469 69.949C279.395 69.8373 279.344 69.712 279.32 69.5803C279.296 69.4443 279.3 69.3047 279.333 69.1704C279.366 69.0362 279.426 68.9102 279.51 68.8003C280.236 67.8692 281.181 67.1309 282.26 66.6503C283.485 66.095 284.798 65.7567 286.14 65.6503C287.616 65.527 289.102 65.6452 290.54 66.0003C292.092 66.3743 293.554 67.0543 294.84 68.0003Z" fill="#EDF6FF"/>
<path d="M206.53 179.21H171V93.1299C171 85.6535 173.97 78.4833 179.257 73.1966C184.543 67.91 191.714 64.9399 199.19 64.9399H202.47C209.946 64.9399 217.117 67.91 222.403 73.1966C227.69 78.4833 230.66 85.6535 230.66 93.1299V155.13C230.647 161.521 228.099 167.646 223.575 172.16C219.051 176.675 212.921 179.21 206.53 179.21Z" fill="#212121"/>
<path d="M167.541 386.44C166.912 390.006 166.578 393.619 166.541 397.24C166.411 403.8 165.211 406.13 165.051 411.51C164.861 417.66 165.931 419.96 168.421 423.42C170.911 426.88 177.421 430.01 180.241 424.17C183.061 418.33 182.651 414.5 181.761 408.47C180.851 402.23 180.761 398.78 180.201 394.03C179.741 389.84 179.201 386.65 179.201 386.65L167.541 386.44Z" fill="#5F5E5F"/>
<path d="M186.161 342.87L164.561 342.48C164.881 356.9 167.171 372.91 167.561 386.48C167.641 389.03 167.501 406.27 168.461 411.48C169.911 419.36 179.251 418.29 179.751 413.58C180.251 408.87 179.151 388.74 179.181 386.66C179.091 377.98 183.181 363.33 185.291 347.75C185.381 347 186.061 343.62 186.161 342.87Z" fill="#FFDDDD"/>
<path d="M213.91 375.22C213.91 375.22 213.06 374.76 212.91 375.67C212.7 376.75 212.38 378.98 211.91 380.76C211.29 383.23 210.77 387.3 211.14 389.32C211.51 391.34 216.21 393.92 219.26 394.86C223.019 396.02 226.447 398.06 229.26 400.81C232.26 403.65 238.79 406.33 243.26 406.3C248.51 406.3 252.17 404.55 253.9 401.74C255.63 398.93 252.32 398.59 246.32 394.74L241.67 391.74C232.16 385.53 228.67 382.21 226 376L213.91 375.22Z" fill="#5F5E5F"/>
<path d="M226.08 371.37C225.92 366.91 229 329 229 329L208.49 338.35C212.88 364.57 213.82 370.76 213.89 375.05C213.8 375.409 213.763 375.78 213.78 376.15C213.78 381.24 219.55 383.99 224.03 387.39C227.839 390.373 231.897 393.023 236.16 395.31C239.42 396.94 246.04 397.09 246.86 395C241.4 390.83 233.46 384.59 229.12 379.83C227 377.59 226.24 375.84 226.08 371.37Z" fill="#FFDDDD"/>
<path d="M173.41 202.16C165.53 219.45 165.53 232.83 166.84 254.9C168 275.15 169.93 293 169.93 293C169.63 296.59 164.64 303.6 163.99 319.48C163.39 334.32 164.99 353.19 164.99 353.19C164.99 353.19 176.2 359.4 184.49 353.13C184.49 353.13 192.49 314.94 194.83 296.36C196.83 280.15 200.43 259.44 200.43 259.44L208 296.25C206.366 301.472 205.182 306.825 204.46 312.25C203.4 323.18 209.52 344.64 209.52 344.64C209.52 344.64 221.1 348.09 228.17 341.82C228.17 341.82 230.81 306.93 231.8 293.77C233.12 276.14 230.34 228.42 228.17 203.15L173.41 202.16Z" fill="#0082CA"/>
<path d="M200.45 259.41L203.56 231.67C203.56 231.67 217.5 229.81 223.82 223.87C222.011 226.7 219.602 229.097 216.762 230.891C213.923 232.685 210.723 233.831 207.39 234.25L202.89 260.06L208 296.25L200.45 259.41Z" fill="#263238"/>
<path d="M256.9 195.34C257.476 190.278 257.73 185.184 257.66 180.09C257.35 175.69 256.56 174.97 250.41 167.18C242.11 156.65 235.02 147.18 227.52 137.77C222.16 131.05 216.52 130.02 211.04 130.32C207.2 130.53 214.7 149 218.47 159.93L240 183.11C240.667 184.025 240.973 185.153 240.86 186.28L239.56 206L246.01 214.64C246.01 214.64 255.78 206.22 256.9 195.34Z" fill="#FFDDDD"/>
<path d="M190.28 130.92C186.11 131.21 178.53 131.92 178.53 131.92C174.16 134.36 173.05 136.37 172.24 142.17C171.89 144.65 173.91 151.24 175.64 160.61L178.92 177.98L178.56 186.6C176.86 191.86 173.01 198.39 169.61 208.02C186.31 217.34 200.31 217.69 213.01 216.02C222.69 214.77 227.82 212.43 229.53 210.11C229.17 200.6 228.53 194.72 228.33 184.78C228.26 180.61 228.51 176.39 228.68 171.59C235.17 166.25 235.25 157.37 231.68 151.59C223.45 138.26 215.44 129.87 210.14 130.3L190.28 130.92Z" fill="#9064DB"/>
<path d="M190.28 130.92C186.11 131.21 178.53 131.92 178.53 131.92C174.16 134.36 173.05 136.37 172.24 142.17C171.89 144.65 173.91 151.24 175.64 160.61L178.92 177.98L178.56 186.6C176.86 191.86 173.01 198.39 169.61 208.02C186.31 217.34 200.31 217.69 213.01 216.02C222.69 214.77 227.82 212.43 229.53 210.11C229.17 200.6 228.53 194.72 228.33 184.78C228.26 180.61 228.51 176.39 228.68 171.59C235.17 166.25 235.25 157.37 231.68 151.59C223.45 138.26 215.44 129.87 210.14 130.3L190.28 130.92Z" fill="#92D050"/>
<path d="M226.09 103.61C225.76 118.05 221.09 121.61 218.73 122.61C216.37 123.61 211.85 123.01 207.45 122.28V131C207.45 131 212.53 136.32 212.15 140.29C211.77 144.26 204.15 144.71 198.47 140.82C195.336 138.667 192.501 136.108 190.04 133.21C189.568 132.651 189.309 131.942 189.31 131.21V110.81C189.31 110.81 186.9 113.36 182.64 110.44C181.721 109.853 180.934 109.082 180.329 108.175C179.724 107.267 179.315 106.244 179.127 105.17C178.939 104.096 178.976 102.995 179.237 101.936C179.497 100.877 179.975 99.884 180.64 99.02C182.5 96.83 187.22 96.68 189.48 100.02C190.76 102.51 190.93 105.02 192.36 104.02C196.16 101.28 194.12 95.02 198.71 92.02C200.217 91.2338 201.781 90.5652 203.39 90.02C211.58 87.19 218.68 84.81 220.39 79.21C223.61 81.05 226.49 86.58 226.09 103.61Z" fill="#FFDDDD"/>
<path d="M214.85 115C214.629 115 214.391 114.973 214.17 114.905L214.527 114.106C214.867 114.201 215.19 114.119 215.377 114.038C215.7 113.902 215.853 113.713 215.887 113.618C216.007 113.252 215.887 112.818 215.802 112.412L214 105.163L215.037 105L216.84 112.249C216.959 112.71 217.095 113.279 216.908 113.835C216.789 114.201 216.398 114.566 215.87 114.783C215.547 114.919 215.19 115 214.833 115H214.85Z" fill="black"/>
<path d="M211.529 118.986C210.707 118.986 209.885 118.645 209.257 118.035C208.508 117.298 208.036 116.177 208 115.028L208.749 115C208.773 115.908 209.148 116.787 209.74 117.355C210.332 117.936 211.142 118.206 211.891 118.078L212 118.957C211.843 118.986 211.686 119 211.517 119L211.529 118.986Z" fill="black"/>
<path d="M208.681 101.42C208.68 101.811 208.565 102.194 208.349 102.52C208.134 102.846 207.827 103.102 207.467 103.256C207.108 103.41 206.711 103.455 206.326 103.386C205.941 103.316 205.585 103.136 205.301 102.866C205.018 102.596 204.82 102.249 204.732 101.868C204.644 101.487 204.67 101.088 204.806 100.721C204.942 100.355 205.183 100.036 205.498 99.8046C205.814 99.5733 206.19 99.4395 206.581 99.42C206.852 99.4064 207.122 99.4481 207.377 99.5425C207.631 99.637 207.864 99.7821 208.06 99.9692C208.256 100.156 208.413 100.381 208.519 100.631C208.626 100.88 208.681 101.149 208.681 101.42Z" fill="#212121"/>
<path d="M223.83 101.62C223.851 101.865 223.822 102.111 223.747 102.345C223.671 102.578 223.549 102.794 223.389 102.98C223.229 103.167 223.034 103.319 222.814 103.429C222.595 103.539 222.355 103.604 222.11 103.62C221.863 103.643 221.614 103.613 221.379 103.532C221.145 103.451 220.93 103.321 220.749 103.151C220.569 102.981 220.426 102.774 220.332 102.545C220.237 102.315 220.192 102.068 220.2 101.82C220.175 101.574 220.199 101.324 220.273 101.088C220.347 100.851 220.469 100.632 220.63 100.444C220.792 100.256 220.99 100.103 221.212 99.9948C221.435 99.8862 221.678 99.8241 221.925 99.8125C222.173 99.8009 222.42 99.84 222.652 99.9274C222.884 100.015 223.096 100.149 223.274 100.321C223.452 100.493 223.594 100.699 223.689 100.928C223.785 101.157 223.833 101.402 223.83 101.65V101.62Z" fill="#212121"/>
<path opacity="0.2" d="M207.441 122.31C202.801 121.7 193.251 118.96 191.761 115.18C192.36 117.09 193.529 118.772 195.111 120C197.961 122.45 207.441 125.2 207.441 125.2V122.31Z" fill="#F28F8F"/>
<path d="M207.67 92.06L203.43 94.65C203.096 94.0679 202.999 93.3795 203.159 92.7277C203.32 92.0759 203.725 91.5109 204.29 91.15C204.57 90.9802 204.881 90.869 205.205 90.8229C205.529 90.7769 205.859 90.797 206.175 90.882C206.491 90.9671 206.786 91.1153 207.043 91.3178C207.301 91.5203 207.514 91.7727 207.67 92.06Z" fill="#212121"/>
<path d="M224.92 94.9398L220.2 93.2898C220.292 92.977 220.446 92.6861 220.654 92.4352C220.862 92.1842 221.119 91.9784 221.409 91.8305C221.699 91.6825 222.017 91.5954 222.342 91.5747C222.667 91.5539 222.993 91.5999 223.3 91.7098C223.933 91.9373 224.455 92.3995 224.756 93.0008C225.058 93.6021 225.116 94.2964 224.92 94.9398Z" fill="#212121"/>
<path d="M153.2 112.06C156.94 107.06 159.49 103.29 162.9 99.0598C164.84 96.6298 166.08 94.8898 167.9 92.3998C169.18 90.6798 169.9 89.2298 171.36 88.6998C172.938 88.0535 174.359 87.0785 175.53 85.8398C176.25 85.0435 176.918 84.2017 177.53 83.3198C179.674 80.4349 182.22 77.8722 185.09 75.7098C188.09 73.4498 191.44 71.7098 194.53 69.5598C196.37 68.2698 198.34 66.1298 196.1 64.1298C195.413 63.5512 194.591 63.1557 193.71 62.9798C188.26 61.7998 183.52 63.6698 178.19 65.0298C175.875 65.6077 173.611 66.3736 171.42 67.3198C170.343 67.746 169.332 68.3253 168.42 69.0398C167.145 70.3256 166.1 71.8206 165.33 73.4598C163 77.6198 158 81.3398 154.5 84.6298C150.41 88.4798 146.75 92.0098 142.08 96.2498C137.88 100.08 133.77 103.6 129.92 107.78C126.73 111.23 127.92 113.93 128.34 114.87C130.94 120.21 133.85 122.13 137.34 125.44C143.34 131.17 164.09 147.66 170.96 153.11C172.436 154.269 173.596 155.783 174.33 157.51L175.65 160.56C183.49 162 188.72 150.23 182.23 136.06C181.156 133.768 179.514 131.789 177.46 130.31C169.26 124.34 153.2 112.06 153.2 112.06Z" fill="#FFDDDD"/>
<path opacity="0.2" d="M153.2 112.06C150.705 115.13 147.379 117.417 143.62 118.65C143.62 118.65 148.62 119.93 155.47 113.78L153.2 112.06Z" fill="#F28F8F"/>
<path d="M254.861 184.91L253.581 183.81C253.389 183.684 253.171 183.604 252.944 183.578C252.716 183.552 252.485 183.58 252.271 183.66L238.381 187.44C237.681 187.673 237.04 188.055 236.501 188.559C235.963 189.063 235.54 189.677 235.261 190.36L225.261 219.19C225.14 219.425 225.093 219.69 225.125 219.952C225.157 220.214 225.267 220.461 225.441 220.66L226.761 221.8C226.953 221.932 227.174 222.016 227.406 222.044C227.638 222.072 227.873 222.043 228.091 221.96L242.001 218.18C242.7 217.946 243.341 217.565 243.88 217.061C244.418 216.557 244.842 215.942 245.121 215.26C247.121 209.59 253.121 192.1 255.121 186.43C255.361 185.72 255.241 185.18 254.861 184.91Z" fill="#455A64"/>
<path d="M226.57 220.3L236.57 191.47C236.848 190.787 237.271 190.174 237.81 189.671C238.349 189.169 238.99 188.789 239.69 188.56L253.57 184.78C254.86 184.43 255.57 185.17 255.11 186.43C253.11 192.1 247.11 209.59 245.11 215.26C244.831 215.942 244.408 216.557 243.869 217.061C243.331 217.565 242.69 217.946 241.99 218.18L228.11 222C226.83 222.3 226.14 221.56 226.57 220.3Z" fill="#9064DB"/>
<path d="M238.181 189.36C237.459 189.907 236.899 190.64 236.561 191.48L226.561 220.3C226.446 220.529 226.399 220.785 226.423 221.04C226.448 221.295 226.544 221.537 226.701 221.74L225.461 220.68C225.283 220.483 225.17 220.237 225.136 219.975C225.102 219.712 225.149 219.445 225.271 219.21L235.271 190.38C235.587 189.596 236.1 188.907 236.761 188.38L238.181 189.36Z" fill="#37474F"/>
<path d="M251.05 198.05C250.05 200.98 246.58 202.94 240.84 204.3C235.1 205.66 231.93 211.75 232.84 213.6C233.75 215.45 243.03 217.18 246.74 216.65C250.45 216.12 254.17 210.76 255.3 209.1C256.43 207.44 257.73 195.86 256.54 194.27C255.35 192.68 252.84 192.93 252.84 192.93L251.05 198.05Z" fill="#FFD5D5"/>
</svg>
