<svg width="477" height="477" viewBox="0 0 477 477" fill="none" xmlns="http://www.w3.org/2000/svg">
<path d="M420.954 409.74C411.264 419.941 402.095 426.518 394.852 431.716C309.706 492.809 208.954 475.001 187.542 470.652C155.924 464.23 94.8035 451.816 50.6154 399.852C-16.2379 321.234 -5.82847 197.372 46.0278 115.611C55.5133 100.655 105.617 17.6466 207.453 4.33563C269.082 -3.7212 340.924 12.5271 392.949 56.1152C502.154 147.608 494.381 332.439 420.954 409.741V409.74Z" fill="#F3F6FF"/>
<g opacity="0.7">
<path d="M152.016 54.5978C151.091 54.8262 150.156 54.2602 149.928 53.3345C149.485 51.5377 148.958 49.7323 148.361 47.9695C148.059 47.0779 148.528 46.1113 149.41 45.7925L149.442 45.7806C150.344 45.4754 151.324 45.9579 151.629 46.8614C152.258 48.7162 152.812 50.6171 153.28 52.5077C153.493 53.372 153.012 54.2466 152.192 54.5415C152.136 54.562 152.078 54.5807 152.018 54.5944L152.016 54.5978ZM144.866 39.5922C144.034 37.9283 143.124 36.2849 142.159 34.7046C141.663 33.8931 141.919 32.831 142.732 32.3332C143.55 31.8371 144.607 32.0928 145.103 32.906C146.119 34.5682 147.078 36.2985 147.952 38.0477C148.378 38.9001 148.032 39.9366 147.18 40.3628C147.118 40.3935 147.055 40.4207 146.992 40.4429C146.181 40.7344 145.262 40.3815 144.866 39.5905V39.5922ZM136.902 27.3109C135.724 25.8789 134.469 24.4792 133.173 23.1529C132.507 22.471 132.52 21.3799 133.201 20.7134C133.882 20.0485 134.974 20.0604 135.64 20.7406C137.006 22.1386 138.327 23.6115 139.566 25.1202C140.171 25.8567 140.064 26.9427 139.329 27.5479C139.172 27.6774 139 27.7729 138.82 27.8377C138.153 28.0781 137.377 27.8888 136.902 27.3092V27.3109ZM126.39 17.1197C124.92 15.9843 123.384 14.9017 121.824 13.8976C121.023 13.3828 120.791 12.3139 121.308 11.5143C121.824 10.7131 122.892 10.4829 123.693 10.9978C125.335 12.0547 126.952 13.1952 128.5 14.3903C129.254 14.9716 129.394 16.0559 128.812 16.8094C128.604 17.0788 128.332 17.2697 128.033 17.3788C127.498 17.5714 126.877 17.4964 126.393 17.1231L126.39 17.1197ZM113.87 9.52484C112.189 8.74745 110.45 8.02974 108.703 7.39385C107.808 7.06824 107.346 6.07775 107.671 5.18274C107.997 4.28602 108.987 3.82573 109.882 4.15134C111.72 4.81962 113.549 5.57484 115.319 6.39314C116.183 6.79206 116.56 7.81834 116.159 8.68267C115.958 9.1191 115.597 9.42937 115.179 9.5811C114.767 9.72941 114.3 9.72259 113.87 9.52313V9.52484ZM99.981 4.88951C98.1671 4.50253 96.314 4.18714 94.4728 3.95529C93.5284 3.83596 92.8584 2.97333 92.9777 2.02888C93.0971 1.08272 93.9597 0.414445 94.9059 0.53378C96.8442 0.777565 98.7945 1.11 100.704 1.51744C101.635 1.7169 102.23 2.63238 102.03 3.5649C101.901 4.1701 101.469 4.63209 100.927 4.82814C100.634 4.93384 100.31 4.96112 99.9827 4.89122L99.981 4.88951ZM38.2421 21.9698C37.5772 21.2879 37.5908 20.1951 38.2745 19.5302C39.6724 18.1681 41.1487 16.8486 42.6626 15.6092C43.3991 15.0057 44.4867 15.1131 45.0902 15.8513C45.6937 16.5878 45.5846 17.6754 44.8481 18.2789C43.411 19.4552 42.0097 20.7083 40.6816 22.0022C40.4992 22.1795 40.2878 22.3091 40.0645 22.3892C39.4474 22.6108 38.7296 22.471 38.2438 21.9698H38.2421ZM85.4187 3.44897C83.5639 3.47454 81.6886 3.58024 79.844 3.76606C78.8962 3.85982 78.0506 3.16938 77.9551 2.22152C77.8597 1.27366 78.5535 0.433199 79.4997 0.332616C81.4431 0.13827 83.4173 0.0257521 85.371 0.000180245C86.324 -0.0134581 87.1065 0.748585 87.1201 1.70156C87.1303 2.45678 86.653 3.10631 85.9796 3.34839C85.804 3.41147 85.6148 3.44727 85.4187 3.44897ZM49.8841 12.4554C49.3897 11.6422 49.6471 10.5801 50.462 10.0857C52.1293 9.07136 53.8631 8.11668 55.6122 7.24553C56.4646 6.81763 57.5011 7.16882 57.9256 8.02121C58.3501 8.87361 58.0023 9.91012 57.1499 10.3346C55.486 11.1631 53.8392 12.0701 52.2554 13.035C52.1549 13.0964 52.0492 13.1458 51.9418 13.185C51.1865 13.4578 50.3188 13.1714 49.8841 12.4571V12.4554ZM70.9024 5.29866C69.1022 5.7385 67.2968 6.26187 65.5375 6.85344C64.6339 7.15859 63.6571 6.67272 63.3519 5.76919C63.0519 4.87758 63.5207 3.91267 64.4021 3.59558C64.414 3.59217 64.4259 3.58705 64.4362 3.58365C66.2893 2.95969 68.1901 2.40905 70.0841 1.94535C71.0098 1.72031 71.9441 2.2863 72.1691 3.212C72.3805 4.07633 71.8997 4.94748 71.0797 5.24241C71.0218 5.26286 70.9621 5.28162 70.9024 5.29696V5.29866Z" fill="#FF7600"/>
<path d="M32.1864 31.5935C32.5052 31.4776 32.7951 31.2679 33.0064 30.9696C33.5213 30.2433 34.06 29.5171 34.6072 28.8096C35.1903 28.0561 35.0505 26.9719 34.297 26.3905C33.5435 25.8075 32.4592 25.9456 31.8779 26.7008C31.3017 27.4458 30.7357 28.2095 30.1935 28.9733C29.6429 29.7507 29.8253 30.8281 30.601 31.3787C31.08 31.7197 31.6733 31.7794 32.1864 31.5952V31.5935Z" fill="#FF7600"/>
</g>
<g opacity="0.7">
<path d="M20.9075 82.9604C21.69 82.6774 22.1759 81.8625 22.0156 81.0169C21.8503 80.144 21.7003 79.2507 21.5707 78.366C21.4326 77.4232 20.5563 76.772 19.6136 76.9101C18.6674 77.0499 18.0196 77.9244 18.1577 78.8672C18.2941 79.7997 18.4526 80.739 18.6265 81.6579C18.8038 82.5938 19.7057 83.2093 20.6416 83.032C20.7336 83.0149 20.8223 82.9893 20.9075 82.9587V82.9604Z" fill="#FF7600"/>
<path d="M106.418 134.825C105.508 135.105 104.543 134.592 104.263 133.68C103.985 132.769 104.497 131.806 105.409 131.527C107.143 130.996 108.881 130.383 110.596 129.699C111.476 129.345 112.485 129.778 112.838 130.662C113.191 131.547 112.76 132.551 111.875 132.904C111.132 133.201 110.387 133.484 109.64 133.753C108.575 134.137 107.49 134.498 106.418 134.825ZM118 128.187C117.531 127.358 117.823 126.305 118.652 125.836C120.244 124.934 121.814 123.957 123.319 122.929C124.103 122.391 125.179 122.594 125.716 123.381C126.253 124.167 126.05 125.241 125.264 125.778C123.679 126.861 122.025 127.89 120.351 128.838C120.264 128.888 120.176 128.929 120.084 128.961C119.308 129.24 118.42 128.929 117.999 128.187H118ZM97.2615 136.953C95.3675 137.258 93.4326 137.487 91.513 137.631C90.5634 137.703 89.7349 136.99 89.6633 136.041C89.5917 135.091 90.3043 134.265 91.2539 134.191C93.0763 134.055 94.9123 133.838 96.7126 133.547C97.6536 133.395 98.5384 134.034 98.6902 134.975C98.8248 135.807 98.339 136.597 97.5735 136.871C97.4746 136.907 97.3689 136.934 97.2615 136.951V136.953ZM130.212 119.835C129.572 119.129 129.625 118.038 130.331 117.399C131.685 116.172 133.001 114.873 134.244 113.538C134.893 112.84 135.984 112.801 136.681 113.451C137.379 114.1 137.418 115.191 136.768 115.889C135.459 117.295 134.073 118.664 132.648 119.955C132.476 120.11 132.281 120.226 132.075 120.301C131.437 120.531 130.696 120.369 130.212 119.835ZM82.1196 137.689C80.2051 137.57 78.2685 137.367 76.3642 137.088C75.4215 136.95 74.7703 136.073 74.9083 135.131C75.0464 134.188 75.9244 133.537 76.8671 133.675C78.6759 133.941 80.5154 134.133 82.3327 134.246C83.284 134.305 84.0068 135.124 83.9471 136.075C83.9028 136.784 83.4374 137.366 82.81 137.592C82.5952 137.669 82.3617 137.705 82.1179 137.689H82.1196ZM67.1839 135.088C65.3377 134.553 63.4914 133.932 61.6996 133.245C60.8097 132.904 60.3648 131.907 60.7057 131.017C61.0467 130.125 62.044 129.682 62.9339 130.023C64.637 130.676 66.3912 131.264 68.1454 131.774C69.0609 132.04 69.586 132.996 69.3217 133.912C69.1615 134.462 68.7506 134.873 68.2477 135.054C67.917 135.173 67.5471 135.192 67.1839 135.086V135.088ZM53.1689 129.293C51.4828 128.368 49.8156 127.36 48.2165 126.3C47.422 125.773 47.2055 124.702 47.7323 123.91C48.2591 123.115 49.3297 122.899 50.1224 123.425C51.6431 124.433 53.2251 125.389 54.8293 126.269C55.6647 126.728 55.9698 127.776 55.5112 128.611C55.3016 128.995 54.9657 129.268 54.5838 129.404C54.1338 129.566 53.6206 129.542 53.1689 129.293ZM40.7529 120.58C39.3089 119.308 37.9042 117.96 36.5744 116.572C35.9147 115.883 35.9386 114.792 36.6273 114.133C37.3143 113.475 38.4071 113.498 39.0668 114.186C40.3284 115.503 41.6632 116.784 43.0356 117.992C43.7499 118.621 43.8198 119.712 43.189 120.427C42.9896 120.652 42.7458 120.814 42.4815 120.909C41.9087 121.115 41.2439 121.011 40.7546 120.58H40.7529ZM30.5497 109.346C29.4246 107.791 28.3522 106.166 27.3601 104.519C26.8691 103.703 27.1316 102.642 27.9482 102.151C28.7614 101.662 29.8235 101.923 30.3162 102.74C31.2589 104.305 32.2784 105.847 33.3456 107.325C33.9047 108.098 33.7309 109.175 32.9586 109.734C32.8239 109.831 32.6807 109.906 32.5324 109.961C31.8283 110.215 31.0117 109.985 30.5497 109.347V109.346ZM23.0691 96.1591C22.5099 94.86 21.9832 93.5286 21.5041 92.2006C21.3302 91.7198 21.1632 91.239 21.0012 90.7566C20.6977 89.8531 21.1666 88.8626 22.0872 88.5728C22.9907 88.2693 23.9675 88.7552 24.271 89.6587C24.4244 90.1173 24.5847 90.5759 24.7483 91.0328C25.2035 92.296 25.703 93.561 26.2349 94.7969C26.6117 95.6715 26.2076 96.6858 25.3331 97.0626C25.3007 97.0762 25.2666 97.0899 25.2342 97.1018C24.3835 97.4087 23.4288 97.0029 23.0674 96.1608L23.0691 96.1591Z" fill="#FFB82E"/>
<path d="M141.89 109.179C142.212 109.063 142.503 108.849 142.715 108.548C143.252 107.784 143.782 106.993 144.292 106.2C144.807 105.399 144.575 104.332 143.773 103.817C142.972 103.302 141.905 103.534 141.39 104.335C140.906 105.089 140.401 105.839 139.892 106.565C139.344 107.344 139.532 108.42 140.311 108.967C140.788 109.303 141.378 109.363 141.888 109.179H141.89Z" fill="#FFB82E"/>
</g>
<path d="M136.827 80.0416C136.941 79.7177 136.837 79.3563 136.567 79.1415L128.881 73.0435C129.377 68.4883 129.15 63.8206 128.137 59.2142L135.117 52.3252C135.362 52.0831 135.425 51.7132 135.277 51.4029L130.192 40.7889C130.043 40.4786 129.714 40.2962 129.372 40.3354L119.63 41.4572C116.676 37.7816 113.181 34.6789 109.32 32.2121L109.385 22.3993C109.386 22.055 109.17 21.7481 108.846 21.6339L97.7443 17.7231C97.4204 17.6089 97.059 17.7128 96.8441 17.9822L90.7461 25.6691C86.1909 25.173 81.5232 25.398 76.9169 26.4124L70.0278 19.433C69.7857 19.1875 69.4158 19.1227 69.1055 19.2727L58.4898 24.3581C58.1795 24.5064 57.9988 24.8355 58.038 25.1781L59.1598 34.921C55.4843 37.8754 52.3815 41.3702 49.9147 45.2316L40.102 45.1668C39.7576 45.1651 39.4507 45.3799 39.3365 45.7055L35.4257 56.8071C35.3115 57.131 35.4155 57.4924 35.6848 57.7055L43.3717 63.8035C42.8756 68.3587 43.1024 73.0264 44.115 77.6328L37.1356 84.5218C36.8901 84.7639 36.8254 85.1339 36.9754 85.4441L42.0608 96.0598C42.2091 96.3701 42.5381 96.5525 42.8808 96.5116L52.6236 95.3899C55.578 99.0654 59.0728 102.168 62.9342 104.635L62.8694 114.448C62.8677 114.792 63.0825 115.099 63.4081 115.213L74.5097 119.122C74.8336 119.236 75.195 119.132 75.4098 118.863L81.5079 111.176C86.0631 111.672 90.7308 111.446 95.3371 110.433L102.226 117.412C102.468 117.656 102.838 117.721 103.148 117.573L113.762 112.487C114.073 112.339 114.255 112.01 114.214 111.667L113.092 101.926C116.768 98.9716 119.871 95.4768 122.338 91.6155L132.15 91.6803C132.495 91.682 132.802 91.4654 132.916 91.1415L136.825 80.0399L136.827 80.0416Z" fill="#FFB82E"/>
<path d="M88.4721 80.0213C82.0774 81.3135 75.8242 77.164 74.5303 70.7694C73.9029 67.6718 74.5218 64.5162 76.2692 61.8823C78.0166 59.2501 80.6846 57.4533 83.7822 56.8276C90.1768 55.5354 96.43 59.6848 97.7239 66.0795C98.9002 71.8962 95.5708 77.597 90.1462 79.5524C89.6074 79.7468 89.05 79.9036 88.4721 80.0195V80.0213ZM78.5689 63.4098C77.229 65.4283 76.755 67.8491 77.2358 70.2238C78.2263 75.1251 83.0218 78.3079 87.9248 77.3175C92.8295 76.327 96.0089 71.5314 95.0184 66.6284C94.028 61.7272 89.2324 58.5443 84.3294 59.5348C83.8845 59.6251 83.4532 59.7462 83.0338 59.8979C81.2148 60.5543 79.6583 61.7698 78.5689 63.4115V63.4098Z" fill="#0082CA"/>
<path d="M95.7105 95.7123C96.6431 95.3765 97.5619 94.9912 98.4689 94.5582C98.7536 94.4218 99.0366 94.2803 99.3179 94.1354C100.7 93.4177 102.025 92.5891 103.27 91.6669C103.287 91.6549 103.304 91.6413 103.321 91.6293C103.368 91.5935 103.416 91.5578 103.464 91.5202C103.558 91.4503 103.65 91.3787 103.742 91.3071C103.984 91.1196 104.067 90.8025 103.969 90.5281C103.945 90.4616 103.909 90.3968 103.865 90.3388C103.631 90.0371 103.198 89.9842 102.896 90.2161C101.347 91.4162 99.6554 92.4579 97.8722 93.312C89.0175 97.5569 79.0053 96.6602 71.2281 91.822C66.9013 89.1318 63.2667 85.221 60.9073 80.2942C60.493 79.4299 60.1265 78.5519 59.806 77.6637C57.6511 71.6816 57.6204 65.1949 59.7599 59.1173C62.2183 52.1362 67.2491 46.5292 73.925 43.331C87.7117 36.7283 104.287 42.5689 110.888 56.3487C111.296 57.1977 111.657 58.0655 111.974 58.9468C113.348 62.7622 113.872 66.8366 113.495 70.8787C113.485 70.9827 113.498 71.0849 113.532 71.177C113.619 71.4208 113.843 71.6049 114.117 71.6305C114.497 71.6646 114.833 71.3884 114.869 71.0082C115.266 66.765 114.716 62.4877 113.273 58.4814C112.941 57.5574 112.561 56.6471 112.133 55.7555C105.201 41.2886 87.7901 35.1599 73.3284 42.0882C66.32 45.4449 61.0402 51.3316 58.4592 58.6604C56.2123 65.0415 56.2447 71.8504 58.5069 78.1308C58.8428 79.0633 59.2281 79.9856 59.6628 80.8926C63.0212 87.901 68.9061 93.1824 76.235 95.7635C82.6178 98.0121 89.4284 97.9763 95.7105 95.714V95.7123Z" fill="#0082CA"/>
<g opacity="0.7">
<path d="M222.981 77.3582C223.414 77.2014 223.712 76.7752 223.683 76.291C223.629 75.3875 223.547 74.4754 223.438 73.5753C223.368 72.9906 222.838 72.5746 222.253 72.6462C221.668 72.7144 221.252 73.248 221.324 73.831C221.428 74.6868 221.506 75.558 221.557 76.4189C221.593 77.0053 222.098 77.4537 222.684 77.4179C222.788 77.4111 222.889 77.3906 222.981 77.3565V77.3582Z" fill="#FF7600"/>
<path d="M221.634 69.2897C221.063 69.4312 220.485 69.0852 220.344 68.5123C219.984 67.0718 219.548 65.6329 219.043 64.235C218.937 63.9401 218.826 63.6452 218.714 63.3519C218.504 62.803 218.777 62.1859 219.326 61.9762C219.853 61.7972 220.492 62.0393 220.703 62.5899C220.821 62.8985 220.937 63.2053 221.048 63.5139C221.575 64.9783 222.033 66.487 222.41 67.9992C222.543 68.5345 222.246 69.0749 221.738 69.259C221.704 69.271 221.67 69.2812 221.634 69.2914V69.2897ZM216.469 58.4285C215.623 56.8379 214.672 55.2866 213.64 53.8171C213.303 53.3346 213.419 52.6714 213.901 52.3339C214.38 51.998 215.047 52.1123 215.386 52.5947C216.467 54.1359 217.464 55.7622 218.351 57.4295C218.627 57.9495 218.429 58.5939 217.911 58.8718C217.865 58.8956 217.817 58.9161 217.771 58.9331C217.28 59.1104 216.723 58.9041 216.47 58.4302L216.469 58.4285ZM210.263 49.5892C209.056 48.2577 207.752 46.9877 206.388 45.8131C205.943 45.4295 205.892 44.7561 206.276 44.3111C206.661 43.8645 207.331 43.8134 207.778 44.1986C209.208 45.4295 210.575 46.7626 211.842 48.1589C212.237 48.5953 212.205 49.2687 211.769 49.6642C211.661 49.7597 211.542 49.8313 211.414 49.8773C211.02 50.0188 210.562 49.9199 210.263 49.5909V49.5892ZM202.075 42.545C200.575 41.5477 199 40.6356 197.396 39.8327C196.869 39.5684 196.656 38.9291 196.918 38.4024C197.181 37.8773 197.82 37.6625 198.347 37.925C200.031 38.7672 201.681 39.7236 203.255 40.7686C203.744 41.0942 203.877 41.7557 203.552 42.2467C203.42 42.4444 203.234 42.5842 203.026 42.6575C202.72 42.7683 202.367 42.7376 202.075 42.5433V42.545ZM192.416 37.7136C190.72 37.1118 188.97 36.6089 187.216 36.2185C186.642 36.0907 186.28 35.5213 186.408 34.9467C186.536 34.3722 187.104 34.0091 187.68 34.1387C189.518 34.5461 191.352 35.0746 193.128 35.7037C193.682 35.9014 193.972 36.51 193.776 37.0641C193.665 37.3778 193.422 37.6062 193.134 37.7102C192.91 37.7903 192.658 37.7972 192.416 37.7119V37.7136ZM181.877 35.3729C180.087 35.2025 178.27 35.1411 176.476 35.1922C175.888 35.2093 175.397 34.7456 175.38 34.1574C175.363 33.5693 175.825 33.08 176.415 33.0612C178.297 33.0067 180.203 33.0715 182.08 33.2505C182.664 33.3067 183.094 33.8267 183.038 34.4131C182.997 34.8376 182.714 35.1786 182.337 35.315C182.194 35.3661 182.037 35.3883 181.875 35.3729H181.877ZM171.089 35.6815C169.318 35.9543 167.54 36.3413 165.804 36.8339C165.238 36.9942 164.648 36.6652 164.488 36.0992C164.328 35.5332 164.658 34.9536 165.223 34.7831C167.042 34.2682 168.907 33.8625 170.765 33.5761C171.346 33.4874 171.89 33.8864 171.981 34.4677C172.059 34.9791 171.759 35.4616 171.29 35.6321C171.227 35.6542 171.161 35.673 171.091 35.6832L171.089 35.6815ZM154.397 40.639C154.104 40.1293 154.28 39.4781 154.789 39.1848C156.201 38.3734 157.682 37.625 159.188 36.9618C159.416 36.8595 159.645 36.7623 159.873 36.6652C160.407 36.4231 161.041 36.6907 161.268 37.2346C161.496 37.7767 161.24 38.4007 160.698 38.6291C160.483 38.7194 160.269 38.8115 160.05 38.9087C158.61 39.5429 157.198 40.2555 155.852 41.0294C155.797 41.0618 155.739 41.0874 155.681 41.1079C155.204 41.28 154.658 41.0908 154.397 40.6356V40.639Z" fill="#FF7600"/>
</g>
<g opacity="0.3">
<path d="M192.733 122.576C190.979 123.183 189.17 123.688 187.361 124.077C186.787 124.199 186.219 123.834 186.096 123.258C185.972 122.682 186.343 122.121 186.914 121.993C188.64 121.623 190.363 121.141 192.037 120.561C192.593 120.369 193.2 120.664 193.393 121.219C193.584 121.772 193.294 122.373 192.747 122.569L192.733 122.575V122.576ZM196.465 119.947C196.207 119.419 196.427 118.781 196.957 118.524C198.55 117.75 200.11 116.87 201.596 115.912C202.089 115.597 202.75 115.735 203.069 116.231C203.388 116.725 203.246 117.384 202.752 117.704C201.194 118.708 199.559 119.63 197.89 120.44C197.854 120.457 197.82 120.473 197.784 120.485C197.28 120.667 196.707 120.442 196.466 119.947H196.465ZM181.844 124.915C179.993 125.081 178.118 125.133 176.268 125.074C175.68 125.055 175.218 124.562 175.238 123.974C175.257 123.386 175.748 122.927 176.338 122.943C178.102 123.001 179.892 122.95 181.659 122.793C182.245 122.74 182.762 123.173 182.814 123.759C182.859 124.252 182.559 124.697 182.115 124.856C182.032 124.886 181.942 124.907 181.848 124.914L181.844 124.915ZM205.747 114.259C205.371 113.807 205.43 113.135 205.882 112.758C207.241 111.625 208.543 110.396 209.752 109.105C210.154 108.677 210.829 108.655 211.257 109.056C211.687 109.458 211.709 110.133 211.307 110.563C210.038 111.916 208.673 113.205 207.248 114.395C207.149 114.477 207.04 114.538 206.925 114.579C206.516 114.726 206.041 114.613 205.746 114.26L205.747 114.259ZM170.716 124.552C168.885 124.267 167.05 123.867 165.265 123.364C164.699 123.204 164.37 122.616 164.529 122.05C164.689 121.484 165.277 121.153 165.843 121.313C167.546 121.794 169.294 122.176 171.041 122.447C171.623 122.537 172.021 123.081 171.931 123.664C171.87 124.063 171.594 124.375 171.239 124.503C171.077 124.561 170.898 124.581 170.716 124.554V124.552ZM159.998 121.53C158.284 120.814 156.598 119.987 154.989 119.071C154.477 118.781 154.298 118.132 154.588 117.619C154.878 117.107 155.529 116.927 156.041 117.218C157.577 118.089 159.184 118.879 160.819 119.562C161.361 119.789 161.619 120.413 161.39 120.957C161.271 121.243 161.039 121.451 160.768 121.548C160.526 121.635 160.252 121.635 159.996 121.53H159.998ZM150.311 116.026C148.818 114.92 147.379 113.711 146.037 112.438C145.611 112.032 145.592 111.359 145.998 110.931C146.402 110.505 147.077 110.488 147.503 110.892C148.783 112.107 150.156 113.26 151.579 114.313C152.052 114.664 152.152 115.331 151.801 115.803C151.671 115.979 151.497 116.103 151.307 116.171C150.983 116.287 150.608 116.246 150.311 116.026Z" fill="#FFB82E"/>
<path d="M214.399 106.597C214.592 106.527 214.767 106.401 214.899 106.222C215.436 105.486 215.954 104.729 216.438 103.975C216.755 103.481 216.612 102.821 216.117 102.502C215.623 102.187 214.963 102.328 214.645 102.823C214.183 103.542 213.688 104.263 213.175 104.967C212.829 105.443 212.933 106.11 213.409 106.456C213.705 106.672 214.077 106.713 214.399 106.597Z" fill="#FFB82E"/>
</g>
<path d="M211.516 86.52C211.593 86.3035 211.523 86.0614 211.342 85.9182L206.199 81.8369C206.532 78.7887 206.38 75.6656 205.701 72.5833L210.372 67.9736C210.536 67.8116 210.579 67.5644 210.48 67.3564L207.077 60.2543C206.978 60.0463 206.757 59.9253 206.528 59.9508L200.009 60.7026C198.033 58.2426 195.694 56.1679 193.11 54.516L193.152 47.9508C193.152 47.7207 193.009 47.5144 192.793 47.4377L185.363 44.8208C185.147 44.7441 184.905 44.814 184.761 44.9947L180.68 50.1381C177.632 49.8056 174.509 49.9574 171.427 50.6359L166.817 45.9647C166.655 45.8011 166.408 45.7585 166.2 45.8573L159.096 49.2601C158.888 49.359 158.767 49.5806 158.792 49.809L159.544 56.3281C157.084 58.304 155.009 60.643 153.358 63.2274L146.791 63.1848C146.561 63.1848 146.354 63.328 146.278 63.5445L143.661 70.974C143.584 71.1905 143.654 71.4326 143.835 71.5758L148.978 75.657C148.645 78.7052 148.797 81.8284 149.476 84.9107L144.805 89.5204C144.641 89.6824 144.598 89.9295 144.697 90.1375L148.1 97.2414C148.199 97.4494 148.419 97.5704 148.649 97.5449L155.168 96.793C157.144 99.253 159.485 101.328 162.067 102.98L162.025 109.545C162.025 109.775 162.168 109.981 162.384 110.058L169.814 112.675C170.03 112.752 170.272 112.682 170.416 112.501L174.497 107.358C177.545 107.69 180.668 107.538 183.75 106.86L188.36 111.531C188.522 111.695 188.769 111.737 188.977 111.638L196.08 108.236C196.288 108.137 196.409 107.917 196.383 107.687L195.631 101.168C198.091 99.1917 200.166 96.851 201.818 94.2682L208.385 94.3109C208.615 94.3109 208.821 94.1677 208.898 93.9511L211.515 86.5217L211.516 86.52Z" fill="#FFB82E"/>
<path d="M179.189 86.646C177.078 87.0739 174.928 86.6528 173.135 85.4611C171.341 84.2712 170.119 82.4539 169.693 80.3434C168.811 75.9876 171.635 71.7359 175.995 70.846C180.351 69.9663 184.611 72.7928 185.491 77.1486C185.917 79.2591 185.498 81.4089 184.308 83.2023C183.34 84.6599 181.959 85.7407 180.341 86.3238C179.969 86.4584 179.584 86.5658 179.19 86.646H179.189ZM171.78 79.9223C172.093 81.4753 172.993 82.8119 174.313 83.6882C175.632 84.5627 177.214 84.873 178.766 84.5593C180.317 84.2439 181.655 83.3455 182.53 82.026C183.406 80.7082 183.715 79.1244 183.401 77.5731C182.753 74.3698 179.62 72.2899 176.417 72.9361C176.127 72.9957 175.847 73.0741 175.578 73.1713C172.859 74.1516 171.191 77.0088 171.78 79.9223Z" fill="#0082CA"/>
<path d="M184.228 97.5668C184.862 97.3384 185.489 97.0758 186.11 96.7792C187.342 96.1893 188.515 95.4733 189.601 94.6482C189.649 94.6107 189.698 94.5732 189.746 94.5357C190.121 94.2459 190.249 93.7566 190.097 93.3338C190.06 93.2315 190.007 93.1326 189.935 93.0406C189.576 92.5752 188.906 92.4933 188.44 92.8514C187.434 93.6304 186.34 94.3038 185.189 94.8562C185.126 94.8869 185.061 94.9158 185 94.9465C182.262 96.2268 179.309 96.7741 176.37 96.5951C174.775 96.4979 173.184 96.1842 171.633 95.654C171.621 95.6489 171.607 95.6455 171.595 95.6404C171.556 95.6267 171.519 95.6131 171.479 95.5995C166.96 94.0072 163.33 90.751 161.261 86.4294C160.993 85.8702 160.754 85.3025 160.548 84.7263C159.154 80.853 159.133 76.6541 160.519 72.7195C162.111 68.2001 165.368 64.5706 169.689 62.501C174.009 60.4331 178.88 60.1671 183.399 61.7577C187.919 63.35 191.548 66.6061 193.618 70.9278C193.882 71.4767 194.115 72.0393 194.322 72.6087C195.212 75.0789 195.551 77.7162 195.305 80.3331C195.29 80.495 195.312 80.6502 195.363 80.7934C195.498 81.1684 195.842 81.4531 196.267 81.494C196.853 81.5469 197.372 81.119 197.428 80.5325C197.702 77.6054 197.322 74.6544 196.328 71.891C196.098 71.2534 195.836 70.6243 195.542 70.0106C193.226 65.1758 189.165 61.5327 184.108 59.7512C179.052 57.9714 173.605 58.2612 168.77 60.5814C163.936 62.8982 160.292 66.9573 158.511 72.0154C156.96 76.4172 156.983 81.1156 158.543 85.4492C158.775 86.0919 159.041 86.7295 159.339 87.3534C163.825 96.7144 174.667 101.016 184.229 97.5702L184.228 97.5668Z" fill="#0082CA"/>
<path d="M471.799 84.1758H5.20131C2.32871 84.1758 0 86.5045 0 89.3771V432.072C0 434.945 2.32871 437.273 5.20131 437.273H471.799C474.671 437.273 477 434.945 477 432.072V89.3771C477 86.5045 474.671 84.1758 471.799 84.1758Z" fill="#FF7600"/>
<path d="M444.877 95.1548H28.0762C18.3907 95.1548 10.5391 103.006 10.5391 112.692V405.974C10.5391 415.659 18.3907 423.511 28.0762 423.511H444.877C454.562 423.511 462.414 415.659 462.414 405.974V112.692C462.414 103.006 454.562 95.1548 444.877 95.1548Z" fill="#FFA400"/>
<path d="M440.18 103.462H32.7916C23.1061 103.462 15.2544 111.314 15.2544 120.999V401.604C15.2544 411.289 23.1061 419.141 32.7916 419.141H440.18C449.865 419.141 457.717 411.289 457.717 401.604V120.999C457.717 111.314 449.865 103.462 440.18 103.462Z" fill="#92C0E9"/>
<path opacity="0.74" d="M156.762 112.443H151.556C150.95 112.443 150.458 112.934 150.458 113.541V390.433C150.458 391.039 150.95 391.531 151.556 391.531H156.762C157.369 391.531 157.86 391.039 157.86 390.433V113.541C157.86 112.934 157.369 112.443 156.762 112.443Z" fill="white"/>
<path opacity="0.74" d="M313.663 110.938H308.456C307.85 110.938 307.358 111.429 307.358 112.035V388.927C307.358 389.534 307.85 390.025 308.456 390.025H313.663C314.269 390.025 314.761 389.534 314.761 388.927V112.035C314.761 111.429 314.269 110.938 313.663 110.938Z" fill="white"/>
<path d="M447.601 157.76H332.284C330.327 157.76 328.741 159.346 328.741 161.302V223.739C328.741 225.695 330.327 227.281 332.284 227.281H447.601C449.557 227.281 451.143 225.695 451.143 223.739V161.302C451.143 159.346 449.557 157.76 447.601 157.76Z" fill="#0082CA"/>
<path d="M343.324 160.712H434.928C441.517 160.712 446.868 166.062 446.868 172.653V212.39C446.868 218.979 441.518 224.33 434.928 224.33H343.324C336.735 224.33 331.384 218.98 331.384 212.39V172.653C331.384 166.064 336.733 160.712 343.324 160.712Z" fill="#92C0E9"/>
<path d="M440.289 176.817H386.155C385.635 176.817 385.214 177.239 385.214 177.758V182.218C385.214 182.738 385.635 183.159 386.155 183.159H440.289C440.808 183.159 441.23 182.738 441.23 182.218V177.758C441.23 177.239 440.808 176.817 440.289 176.817Z" fill="#DEE6FF"/>
<path d="M440.289 190.406H386.155C385.635 190.406 385.214 190.828 385.214 191.347V195.807C385.214 196.327 385.635 196.748 386.155 196.748H440.289C440.808 196.748 441.23 196.327 441.23 195.807V191.347C441.23 190.828 440.808 190.406 440.289 190.406Z" fill="#DEE6FF"/>
<path d="M440.289 203.441H386.155C385.635 203.441 385.214 203.863 385.214 204.382V208.842C385.214 209.362 385.635 209.783 386.155 209.783H440.289C440.808 209.783 441.23 209.362 441.23 208.842V204.382C441.23 203.863 440.808 203.441 440.289 203.441Z" fill="#DEE6FF"/>
<path d="M361.24 167.658H340.134C339.444 167.658 338.885 168.217 338.885 168.907V186.138C338.885 186.828 339.444 187.387 340.134 187.387H361.24C361.93 187.387 362.489 186.828 362.489 186.138V168.907C362.489 168.217 361.93 167.658 361.24 167.658Z" fill="url(#paint0_linear_431_4897)"/>
<path d="M343.713 176.824C344.569 176.323 345.668 176.621 346.152 177.487L348.425 181.56C348.652 181.968 349.246 181.942 349.439 181.516L355.075 168.969C355.356 168.343 356.289 168.554 356.279 169.24C356.221 173.077 355.203 180.374 349.071 186.48C349.071 186.48 345.692 185.166 342.969 179.191C342.576 178.328 342.896 177.303 343.714 176.823L343.713 176.824Z" fill="url(#paint1_linear_431_4897)"/>
<path d="M292.354 156.22H177.037C175.081 156.22 173.495 157.806 173.495 159.763V222.199C173.495 224.155 175.081 225.742 177.037 225.742H292.354C294.311 225.742 295.897 224.155 295.897 222.199V159.763C295.897 157.806 294.311 156.22 292.354 156.22Z" fill="#0082CA"/>
<path d="M188.078 159.173H279.681C286.27 159.173 291.621 164.522 291.621 171.113V210.85C291.621 217.439 286.272 222.79 279.681 222.79H188.078C181.489 222.79 176.137 217.441 176.137 210.85V171.113C176.137 164.524 181.487 159.173 188.078 159.173Z" fill="#92C0E9"/>
<path d="M285.041 175.278H230.907C230.387 175.278 229.966 175.7 229.966 176.219V180.679C229.966 181.199 230.387 181.62 230.907 181.62H285.041C285.56 181.62 285.982 181.199 285.982 180.679V176.219C285.982 175.7 285.56 175.278 285.041 175.278Z" fill="url(#paint2_linear_431_4897)"/>
<path d="M285.041 188.867H230.907C230.387 188.867 229.966 189.289 229.966 189.808V194.268C229.966 194.788 230.387 195.209 230.907 195.209H285.041C285.56 195.209 285.982 194.788 285.982 194.268V189.808C285.982 189.289 285.56 188.867 285.041 188.867Z" fill="url(#paint3_linear_431_4897)"/>
<path d="M285.041 201.902H230.907C230.387 201.902 229.966 202.323 229.966 202.843V207.303C229.966 207.822 230.387 208.244 230.907 208.244H285.041C285.56 208.244 285.982 207.822 285.982 207.303V202.843C285.982 202.323 285.56 201.902 285.041 201.902Z" fill="url(#paint4_linear_431_4897)"/>
<path d="M205.993 166.118H184.888C184.198 166.118 183.638 166.678 183.638 167.368V184.598C183.638 185.288 184.198 185.848 184.888 185.848H205.993C206.683 185.848 207.243 185.288 207.243 184.598V167.368C207.243 166.678 206.683 166.118 205.993 166.118Z" fill="url(#paint5_linear_431_4897)"/>
<path d="M292.711 236.125H177.394C175.437 236.125 173.851 237.712 173.851 239.668V302.104C173.851 304.061 175.437 305.647 177.394 305.647H292.711C294.667 305.647 296.253 304.061 296.253 302.104V239.668C296.253 237.712 294.667 236.125 292.711 236.125Z" fill="#0082CA"/>
<path d="M188.432 239.078H280.035C286.624 239.078 291.976 244.428 291.976 251.018V290.755C291.976 297.344 286.626 302.696 280.035 302.696H188.432C181.843 302.696 176.492 297.346 176.492 290.755V251.018C176.492 244.429 181.841 239.078 188.432 239.078Z" fill="#92C0E9"/>
<path d="M285.397 255.183H231.263C230.744 255.183 230.322 255.604 230.322 256.124V260.584C230.322 261.104 230.744 261.525 231.263 261.525H285.397C285.917 261.525 286.338 261.104 286.338 260.584V256.124C286.338 255.604 285.917 255.183 285.397 255.183Z" fill="url(#paint6_linear_431_4897)"/>
<path d="M285.397 268.772H231.263C230.744 268.772 230.322 269.193 230.322 269.713V274.173C230.322 274.692 230.744 275.114 231.263 275.114H285.397C285.917 275.114 286.338 274.692 286.338 274.173V269.713C286.338 269.193 285.917 268.772 285.397 268.772Z" fill="url(#paint7_linear_431_4897)"/>
<path d="M285.397 281.807H231.263C230.744 281.807 230.322 282.228 230.322 282.748V287.208C230.322 287.728 230.744 288.149 231.263 288.149H285.397C285.917 288.149 286.338 287.728 286.338 287.208V282.748C286.338 282.228 285.917 281.807 285.397 281.807Z" fill="url(#paint8_linear_431_4897)"/>
<path d="M206.35 246.023H185.244C184.554 246.023 183.995 246.583 183.995 247.273V264.503C183.995 265.193 184.554 265.753 185.244 265.753H206.35C207.04 265.753 207.599 265.193 207.599 264.503V247.273C207.599 246.583 207.04 246.023 206.35 246.023Z" fill="white"/>
<path d="M140.949 152.141H25.6319C23.6754 152.141 22.0894 153.727 22.0894 155.683V218.119C22.0894 220.076 23.6754 221.662 25.6319 221.662H140.949C142.905 221.662 144.492 220.076 144.492 218.119V155.683C144.492 153.727 142.905 152.141 140.949 152.141Z" fill="#0082CA"/>
<path d="M36.6703 155.093H128.274C134.863 155.093 140.214 160.443 140.214 167.034V206.771C140.214 213.36 134.864 218.711 128.274 218.711H36.6703C30.0813 218.711 24.73 213.361 24.73 206.771V167.034C24.73 160.445 30.0796 155.093 36.6703 155.093Z" fill="#92C0E9"/>
<path d="M133.635 171.198H79.5016C78.9819 171.198 78.5605 171.62 78.5605 172.139V176.599C78.5605 177.119 78.9819 177.54 79.5016 177.54H133.635C134.155 177.54 134.577 177.119 134.577 176.599V172.139C134.577 171.62 134.155 171.198 133.635 171.198Z" fill="url(#paint9_linear_431_4897)"/>
<path d="M133.635 184.787H79.5016C78.9819 184.787 78.5605 185.208 78.5605 185.728V190.188C78.5605 190.708 78.9819 191.129 79.5016 191.129H133.635C134.155 191.129 134.577 190.708 134.577 190.188V185.728C134.577 185.208 134.155 184.787 133.635 184.787Z" fill="url(#paint10_linear_431_4897)"/>
<path d="M133.635 197.824H79.5016C78.9819 197.824 78.5605 198.245 78.5605 198.765V203.224C78.5605 203.744 78.9819 204.166 79.5016 204.166H133.635C134.155 204.166 134.577 203.744 134.577 203.224V198.765C134.577 198.245 134.155 197.824 133.635 197.824Z" fill="url(#paint11_linear_431_4897)"/>
<path d="M54.5878 162.039H33.4825C32.7924 162.039 32.2329 162.598 32.2329 163.288V180.518C32.2329 181.209 32.7924 181.768 33.4825 181.768H54.5878C55.278 181.768 55.8374 181.209 55.8374 180.518V163.288C55.8374 162.598 55.278 162.039 54.5878 162.039Z" fill="url(#paint12_linear_431_4897)"/>
<path d="M447.601 238.239H332.284C330.327 238.239 328.741 239.825 328.741 241.782V304.218C328.741 306.175 330.327 307.761 332.284 307.761H447.601C449.557 307.761 451.143 306.175 451.143 304.218V241.782C451.143 239.825 449.557 238.239 447.601 238.239Z" fill="#0082CA"/>
<path d="M434.926 241.19H343.324C336.73 241.19 331.384 246.536 331.384 253.131V292.866C331.384 299.46 336.73 304.806 343.324 304.806H434.926C441.52 304.806 446.866 299.46 446.866 292.866V253.131C446.866 246.536 441.52 241.19 434.926 241.19Z" fill="#92C0E9"/>
<path d="M440.289 257.297H386.155C385.635 257.297 385.214 257.718 385.214 258.238V262.698C385.214 263.217 385.635 263.639 386.155 263.639H440.289C440.808 263.639 441.23 263.217 441.23 262.698V258.238C441.23 257.718 440.808 257.297 440.289 257.297Z" fill="url(#paint13_linear_431_4897)"/>
<path d="M440.289 270.886H386.155C385.635 270.886 385.214 271.307 385.214 271.827V276.287C385.214 276.806 385.635 277.228 386.155 277.228H440.289C440.808 277.228 441.23 276.806 441.23 276.287V271.827C441.23 271.307 440.808 270.886 440.289 270.886Z" fill="url(#paint14_linear_431_4897)"/>
<path d="M440.289 283.921H386.155C385.635 283.921 385.214 284.342 385.214 284.862V289.322C385.214 289.841 385.635 290.263 386.155 290.263H440.289C440.808 290.263 441.23 289.841 441.23 289.322V284.862C441.23 284.342 440.808 283.921 440.289 283.921Z" fill="url(#paint15_linear_431_4897)"/>
<path d="M361.24 248.136H340.134C339.444 248.136 338.885 248.695 338.885 249.385V266.616C338.885 267.306 339.444 267.865 340.134 267.865H361.24C361.93 267.865 362.489 267.306 362.489 266.616V249.385C362.489 248.695 361.93 248.136 361.24 248.136Z" fill="url(#paint16_linear_431_4897)"/>
<path opacity="0.74" d="M140.755 113H24.2448C23.005 113 22 113.802 22 114.792V133.208C22 134.198 23.005 135 24.2448 135H140.755C141.995 135 143 134.198 143 133.208V114.792C143 113.802 141.995 113 140.755 113Z" fill="white"/>
<path opacity="0.74" d="M292.774 113H177.226C175.997 113 175 113.839 175 114.873V134.127C175 135.161 175.997 136 177.226 136H292.774C294.003 136 295 135.161 295 134.127V114.873C295 113.839 294.003 113 292.774 113Z" fill="white"/>
<path opacity="0.74" d="M446.755 113H330.245C329.005 113 328 113.839 328 114.873V134.127C328 135.161 329.005 136 330.245 136H446.755C447.995 136 449 135.161 449 134.127V114.873C449 113.839 447.995 113 446.755 113Z" fill="white"/>
<path d="M274.392 197.355H139.782C137.826 197.355 136.24 198.941 136.24 200.898V274.292C136.24 276.249 137.826 277.835 139.782 277.835H274.392C276.349 277.835 277.935 276.249 277.935 274.292V200.898C277.935 198.941 276.349 197.355 274.392 197.355Z" fill="#FF7600"/>
<path d="M269.44 200.773H142.841C140.884 200.773 139.298 202.359 139.298 204.316V270.874C139.298 272.83 140.884 274.416 142.841 274.416H269.44C271.397 274.416 272.983 272.83 272.983 270.874V204.316C272.983 202.359 271.397 200.773 269.44 200.773Z" fill="#FFA400"/>
<path d="M265.516 219.417H202.553C202.033 219.417 201.612 219.838 201.612 220.358V225.816C201.612 226.336 202.033 226.757 202.553 226.757H265.516C266.036 226.757 266.457 226.336 266.457 225.816V220.358C266.457 219.838 266.036 219.417 265.516 219.417Z" fill="#FFF3DD"/>
<path d="M265.516 235.148H202.553C202.033 235.148 201.612 235.57 201.612 236.089V241.548C201.612 242.068 202.033 242.489 202.553 242.489H265.516C266.036 242.489 266.457 242.068 266.457 241.548V236.089C266.457 235.57 266.036 235.148 265.516 235.148Z" fill="#FFF3DD"/>
<path d="M265.516 250.237H202.553C202.033 250.237 201.612 250.659 201.612 251.178V256.637C201.612 257.157 202.033 257.578 202.553 257.578H265.516C266.036 257.578 266.457 257.157 266.457 256.637V251.178C266.457 250.659 266.036 250.237 265.516 250.237Z" fill="#FFF3DD"/>
<path d="M174.057 208.813H149.232C148.542 208.813 147.982 209.372 147.982 210.063V230.402C147.982 231.093 148.542 231.652 149.232 231.652H174.057C174.747 231.652 175.307 231.093 175.307 230.402V210.063C175.307 209.372 174.747 208.813 174.057 208.813Z" fill="#FFF3DD"/>
<path d="M329.91 308.232C332.637 306.631 336.146 307.585 337.687 310.347L344.932 323.334C345.657 324.635 347.554 324.551 348.164 323.194L366.135 283.188C367.031 281.192 370.003 281.867 369.97 284.054C369.786 296.291 366.54 319.553 346.986 339.023C346.986 339.023 336.211 334.835 327.533 315.78C326.28 313.029 327.301 309.762 329.91 308.232Z" fill="#FF4519"/>
<defs>
<linearGradient id="paint0_linear_431_4897" x1="338.885" y1="177.522" x2="362.489" y2="177.522" gradientUnits="userSpaceOnUse">
<stop stop-color="#DAE3FE"/>
<stop offset="1" stop-color="#E9EFFD"/>
</linearGradient>
<linearGradient id="paint1_linear_431_4897" x1="377.539" y1="129.054" x2="318.712" y2="229.46" gradientUnits="userSpaceOnUse">
<stop stop-color="#E1473D"/>
<stop offset="1" stop-color="#E9605A"/>
</linearGradient>
<linearGradient id="paint2_linear_431_4897" x1="229.966" y1="178.449" x2="285.984" y2="178.449" gradientUnits="userSpaceOnUse">
<stop stop-color="#DAE3FE"/>
<stop offset="1" stop-color="#E9EFFD"/>
</linearGradient>
<linearGradient id="paint3_linear_431_4897" x1="229.966" y1="192.038" x2="285.984" y2="192.038" gradientUnits="userSpaceOnUse">
<stop stop-color="#DAE3FE"/>
<stop offset="1" stop-color="#E9EFFD"/>
</linearGradient>
<linearGradient id="paint4_linear_431_4897" x1="229.966" y1="205.073" x2="285.984" y2="205.073" gradientUnits="userSpaceOnUse">
<stop stop-color="#DAE3FE"/>
<stop offset="1" stop-color="#E9EFFD"/>
</linearGradient>
<linearGradient id="paint5_linear_431_4897" x1="183.638" y1="175.982" x2="207.243" y2="175.982" gradientUnits="userSpaceOnUse">
<stop stop-color="#DAE3FE"/>
<stop offset="1" stop-color="#E9EFFD"/>
</linearGradient>
<linearGradient id="paint6_linear_431_4897" x1="230.322" y1="258.354" x2="286.338" y2="258.354" gradientUnits="userSpaceOnUse">
<stop stop-color="#DAE3FE"/>
<stop offset="1" stop-color="#E9EFFD"/>
</linearGradient>
<linearGradient id="paint7_linear_431_4897" x1="230.322" y1="271.943" x2="286.338" y2="271.943" gradientUnits="userSpaceOnUse">
<stop stop-color="#DAE3FE"/>
<stop offset="1" stop-color="#E9EFFD"/>
</linearGradient>
<linearGradient id="paint8_linear_431_4897" x1="230.322" y1="284.978" x2="286.338" y2="284.978" gradientUnits="userSpaceOnUse">
<stop stop-color="#DAE3FE"/>
<stop offset="1" stop-color="#E9EFFD"/>
</linearGradient>
<linearGradient id="paint9_linear_431_4897" x1="78.5605" y1="174.369" x2="134.577" y2="174.369" gradientUnits="userSpaceOnUse">
<stop stop-color="#DAE3FE"/>
<stop offset="1" stop-color="#E9EFFD"/>
</linearGradient>
<linearGradient id="paint10_linear_431_4897" x1="78.5605" y1="187.958" x2="134.577" y2="187.958" gradientUnits="userSpaceOnUse">
<stop stop-color="#DAE3FE"/>
<stop offset="1" stop-color="#E9EFFD"/>
</linearGradient>
<linearGradient id="paint11_linear_431_4897" x1="78.5605" y1="200.995" x2="134.577" y2="200.995" gradientUnits="userSpaceOnUse">
<stop stop-color="#DAE3FE"/>
<stop offset="1" stop-color="#E9EFFD"/>
</linearGradient>
<linearGradient id="paint12_linear_431_4897" x1="32.2329" y1="171.902" x2="55.8374" y2="171.902" gradientUnits="userSpaceOnUse">
<stop stop-color="#DAE3FE"/>
<stop offset="1" stop-color="#E9EFFD"/>
</linearGradient>
<linearGradient id="paint13_linear_431_4897" x1="385.214" y1="260.466" x2="441.23" y2="260.466" gradientUnits="userSpaceOnUse">
<stop stop-color="#DAE3FE"/>
<stop offset="1" stop-color="#E9EFFD"/>
</linearGradient>
<linearGradient id="paint14_linear_431_4897" x1="385.214" y1="274.057" x2="441.23" y2="274.057" gradientUnits="userSpaceOnUse">
<stop stop-color="#DAE3FE"/>
<stop offset="1" stop-color="#E9EFFD"/>
</linearGradient>
<linearGradient id="paint15_linear_431_4897" x1="385.214" y1="287.092" x2="441.23" y2="287.092" gradientUnits="userSpaceOnUse">
<stop stop-color="#DAE3FE"/>
<stop offset="1" stop-color="#E9EFFD"/>
</linearGradient>
<linearGradient id="paint16_linear_431_4897" x1="338.885" y1="258.001" x2="362.489" y2="258.001" gradientUnits="userSpaceOnUse">
<stop stop-color="#DAE3FE"/>
<stop offset="1" stop-color="#E9EFFD"/>
</linearGradient>
</defs>
</svg>
