<svg width="145" height="28" viewBox="0 0 145 28" fill="none" xmlns="http://www.w3.org/2000/svg">
<g clip-path="url(#clip0_271_18565)">
<path d="M46.1062 22.2665C44.3951 22.2665 42.8446 21.9011 41.4545 21.1703C40.1132 20.4559 38.9872 19.3961 38.193 18.1004C37.409 16.7825 37.0172 15.2971 37.0178 13.6445C37.0184 11.9919 37.4101 10.5147 38.193 9.21285C38.9778 7.90867 40.1061 6.84541 41.4545 6.13935C42.8446 5.39354 44.4025 5.02049 46.1274 5.01964C47.582 5.01964 48.8932 5.2739 50.0607 5.78214C51.2128 6.26671 52.233 7.01854 53.0369 7.97547L50.5427 10.2624C49.4074 8.95972 48.0006 8.30836 46.3223 8.30836C45.3506 8.2915 44.3915 8.52984 43.5407 8.9996C42.7369 9.43188 42.0718 10.0826 41.622 10.8767C41.1806 11.7312 40.9503 12.6789 40.9503 13.6407C40.9503 14.6024 41.1806 15.5501 41.622 16.4046C42.0745 17.204 42.7383 17.8635 43.5407 18.3109C44.3561 18.7549 45.2829 18.9766 46.3223 18.9766C48.0006 18.9766 49.4074 18.3177 50.5427 16.9997L53.0369 19.2863C52.2398 20.2561 51.2197 21.0183 50.0638 21.508C48.881 22.0137 47.5619 22.2665 46.1062 22.2665ZM63.1319 22.2665C61.3891 22.2665 59.8143 21.8929 58.4073 21.1459C57.0551 20.436 55.9198 19.374 55.1214 18.0722C54.3388 16.7542 53.9471 15.277 53.9462 13.6405C53.9456 12.0044 54.3374 10.5351 55.1214 9.23321C55.9146 7.92101 57.0506 6.84997 58.4073 6.13539C59.8138 5.38958 61.3886 5.01653 63.1319 5.01568C64.8753 5.01511 66.4413 5.38845 67.8302 6.13539C69.1866 6.85003 70.3224 7.92107 71.1153 9.23321C71.9149 10.5359 72.3145 12.0049 72.3145 13.6405C72.3145 15.2761 71.9149 16.7533 71.1153 18.0724C70.3171 19.3741 69.1821 20.436 67.8302 21.1459C66.4407 21.8929 64.8747 22.2665 63.1319 22.2665ZM63.1319 18.9778C64.0696 18.9913 64.9947 18.7615 65.8171 18.3109C66.6056 17.8613 67.2535 17.2013 67.6883 16.4046C68.1446 15.5548 68.3835 14.6052 68.3835 13.6407C68.3835 12.6761 68.1446 11.7265 67.6883 10.8767C67.257 10.0836 66.6077 9.43059 65.8171 8.99479C64.9946 8.5414 64.0707 8.30363 63.1315 8.30363C62.1923 8.30363 61.2684 8.5414 60.4459 8.99479C59.6519 9.43405 58.9958 10.0857 58.5512 10.8767C58.1099 11.7312 57.8796 12.6789 57.8796 13.6407C57.8796 14.6024 58.1099 15.5501 58.5512 16.4046C58.9995 17.1991 59.6541 17.8577 60.4459 18.3109C61.1928 18.7196 62.0255 18.9469 62.8765 18.9744L63.1319 18.9778ZM90.3241 5.30218V21.9803H87.1353L78.7624 11.855V21.9803H74.9284V5.3019H78.1413L86.4867 15.4272V5.3019L90.3241 5.30218ZM119.048 5.01568C120.791 5.01511 122.358 5.38845 123.748 6.13539C125.104 6.85015 126.24 7.92117 127.033 9.23321C127.833 10.5359 128.232 12.0049 128.232 13.6405C128.232 15.2761 127.833 16.7533 127.033 18.0724C126.235 19.3741 125.1 20.436 123.748 21.1459C122.357 21.8929 120.79 22.2665 119.048 22.2665C117.305 22.2665 115.73 21.8929 114.323 21.1459C112.971 20.4362 111.836 19.3741 111.037 18.0722C110.254 16.7542 109.863 15.277 109.863 13.6405C109.863 12.0044 110.254 10.5351 111.037 9.23321C111.831 7.92109 112.966 6.85007 114.323 6.13539C115.729 5.38958 117.304 5.01653 119.048 5.01568ZM95.8857 5.30218L100.994 17.2135L106.174 5.30218H110.034L102.768 21.9803H98.9306L91.6885 5.3019L95.8857 5.30218ZM132.555 5.30218L136.416 10.7101L140.205 5.30218H144.402L138.55 13.3552L144.809 21.9803H140.326L136.272 16.1905L132.291 21.98H127.831L134.042 13.4985L128.143 5.30218H132.555ZM119.048 8.30356C118.108 8.30356 117.184 8.54113 116.362 8.99479C115.567 9.43355 114.91 10.0853 114.464 10.8767C114.023 11.7311 113.792 12.6789 113.792 13.6407C113.792 14.6024 114.023 15.5502 114.464 16.4046C114.913 17.1993 115.567 17.858 116.359 18.3109C117.107 18.7201 117.94 18.9475 118.792 18.9747L119.048 18.9775C119.986 18.991 120.911 18.7613 121.734 18.3109C122.522 17.8608 123.169 17.2009 123.604 16.4046C124.06 15.5547 124.299 14.6052 124.299 13.6407C124.299 12.6761 124.06 11.7266 123.604 10.8767C123.173 10.0839 122.524 9.43097 121.734 8.99479C120.911 8.54135 119.987 8.30356 119.048 8.30356Z" fill="#313131"/>
<path d="M0.26484 17.056L14.2354 24.4024L28.316 17.1142V20.4573L14.2267 27.7636L0.26484 20.4117V17.056ZM28.316 11.0354V14.3776L14.2267 21.6844L0.26484 14.3329V11.0908L14.2346 18.3244L28.316 11.0354ZM14.2063 5.66244e-07L28.6297 8.0804L21.3913 11.8222L14.2091 15.5971L0.000961304 8.07277L14.2063 5.66244e-07ZM14.2159 3.41034L6.17341 7.98226L14.2131 12.2388L20.0399 9.17382L22.3648 7.97547L14.2159 3.41063V3.41034Z" fill="#4F8CE8"/>
</g>
<defs>
<clipPath id="clip0_271_18565">
<rect width="144.81" height="28" fill="white"/>
</clipPath>
</defs>
</svg>
